<?xml version="1.0" encoding="UTF-8"?>
<svg version="1.1" xmlns="http://www.w3.org/2000/svg" width="500" height="420">
<path d="M0 0 C165 0 330 0 500 0 C500 138.6 500 277.2 500 420 C335 420 170 420 0 420 C0 281.4 0 142.8 0 0 Z " fill="#FDFDFD" transform="translate(0,0)"/>
<path d="M0 0 C5.22866463 -0.04984062 10.45718765 -0.08592606 15.68603516 -0.10986328 C17.46079928 -0.11985378 19.23554723 -0.13345081 21.01025391 -0.15087891 C38.86927375 -0.32173053 38.86927375 -0.32173053 46.08129883 1.52416992 C48.16370876 2.04059911 50.17641214 2.2603224 52.3125 2.4375 C75.23039429 4.80970309 102.06642595 15.52369398 117.2109375 33.50390625 C125.0958394 44.50489384 127.4149232 55.55786675 125.609375 68.8828125 C122.69844749 82.57909965 115.49359602 94.86253816 106 105 C105.45907715 105.58716797 104.9181543 106.17433594 104.36083984 106.77929688 C90.11371531 122.12055696 72.11000854 137.66998159 53.11547852 146.91748047 C49.71759613 148.59767929 48.16781318 149.65122901 46.50390625 153.109375 C46.03791016 154.91148437 46.03791016 154.91148437 45.5625 156.75 C43.0734726 165.41138804 39.30275359 173.10586991 35 181 C34.47921875 181.97710937 33.9584375 182.95421875 33.421875 183.9609375 C25.55715313 197.50573627 13.42369597 207.35687847 0 215 C-1.15891354 215.69260899 -2.31776751 216.38531768 -3.4765625 217.078125 C-12.94745368 222.57642749 -22.92649534 225.94987518 -33.35546875 229.1796875 C-35.8985911 229.96854377 -38.43438333 230.77725548 -40.96875 231.59375 C-47.70401333 233.75570325 -54.44824001 235.85700027 -61.25341797 237.78833008 C-71.5158153 240.71227373 -81.50319297 244.29768535 -91.48779297 248.05517578 C-93.03436544 248.63683132 -94.58254122 249.21426957 -96.13330078 249.78466797 C-116.55577438 257.3005922 -135.1626584 268.00061299 -151 283 C-151.33 282.34 -151.66 281.68 -152 281 C-151.07543945 278.34545898 -151.07543945 278.34545898 -149.61328125 274.99609375 C-149.35500046 274.39877945 -149.09671967 273.80146515 -148.83061218 273.18605042 C-147.99852807 271.2666023 -147.15565785 269.35210581 -146.3125 267.4375 C-145.76296476 266.17413547 -145.2141286 264.91046661 -144.66601562 263.64648438 C-142.42163297 258.48074656 -140.14991431 253.32728472 -137.85546875 248.18359375 C-135.85135651 243.68596267 -133.91608843 239.16074057 -132 234.625 C-131.67 233.8515625 -131.34 233.078125 -131 232.28125 C-128.45643505 226.26015485 -126.18722793 220.15884991 -124 214 C-124.95640381 214.2333606 -124.95640381 214.2333606 -125.93212891 214.47143555 C-169.83777957 224.92424859 -220.35616556 231.1759642 -265 222 C-266.04679932 221.79117188 -266.04679932 221.79117188 -267.11474609 221.578125 C-283.75031123 218.10719327 -300.56413687 210.90199943 -312 198 C-312.33 197.01 -312.66 196.02 -313 195 C-313.928125 194.071875 -313.928125 194.071875 -314.875 193.125 C-321.63487235 186.36512765 -321.23217821 178.17445039 -321.25537109 169.08178711 C-321.17838121 163.45565323 -320.51638646 158.09048821 -318 153 C-317.34 152.67 -316.68 152.34 -316 152 C-316.66 157.28 -317.32 162.56 -318 168 C-313.95833333 166.47916667 -313.95833333 166.47916667 -312.875 163.75 C-312.441875 162.38875 -312.441875 162.38875 -312 161 C-311.33333333 159 -310.66666667 157 -310 155 C-309.74605469 154.19433594 -309.49210937 153.38867188 -309.23046875 152.55859375 C-301.4862716 129.39191037 -279.35906649 107.88095595 -259 95 C-258.34 95 -257.68 95 -257 95 C-257 97 -257 97 -259 99.125 C-260.55363331 100.63523573 -262.12721595 102.11627884 -263.7265625 103.578125 C-275.81371334 115.01863814 -288.05620419 131.62495191 -290.3359375 148.484375 C-290.50403299 158.23391334 -287.29655983 166.49647648 -281.02734375 173.9453125 C-270.91957679 184.18940772 -256.04131362 190.59271504 -242.1875 193.5625 C-241.04667969 193.81128906 -239.90585938 194.06007813 -238.73046875 194.31640625 C-231.55110359 195.63199672 -224.47128271 196.15620733 -217.1796875 196.16796875 C-215.96081345 196.17438889 -215.96081345 196.17438889 -214.71731567 196.18093872 C-212.10315347 196.19087566 -209.48917743 196.19099857 -206.875 196.1875 C-205.9768457 196.18656342 -205.07869141 196.18562683 -204.15332031 196.18466187 C-190.33915732 196.15341994 -176.70963737 195.83410283 -163 194 C-161.84822266 193.84934082 -160.69644531 193.69868164 -159.50976562 193.54345703 C-103.87905188 186.0536002 -47.2798546 170.00988417 2.11035156 143.02246094 C5.02829404 141.44360524 7.97703696 139.93531147 10.9375 138.4375 C11.87464844 137.96183594 12.81179688 137.48617187 13.77734375 136.99609375 C16 136 16 136 18 136 C18 135.34 18 134.68 18 134 C19.22009766 133.34257812 19.22009766 133.34257812 20.46484375 132.671875 C45.90817335 118.59075221 74.73195754 99.28222016 84.34375 70.40234375 C87.28801512 59.62423036 87.14966908 49.0513371 82 39 C77.11018975 30.61253723 71.22036089 25.0674883 63 20 C61.89914062 19.32066406 60.79828125 18.64132813 59.6640625 17.94140625 C43.21090833 8.28540459 24.60393995 5.00312617 6 2 C4.80117188 1.80019531 3.60234375 1.60039063 2.3671875 1.39453125 C1.58601563 1.26433594 0.80484375 1.13414063 0 1 C0 0.67 0 0.34 0 0 Z " fill="#4253C9" transform="translate(347,119)"/>
<path d="M0 0 C0.86206055 -0.00962769 1.72412109 -0.01925537 2.61230469 -0.0291748 C15.13069604 -0.14881139 27.02128554 0.93464069 39.3125 3.3125 C40.40022705 3.52189209 41.4879541 3.73128418 42.60864258 3.94702148 C52.31623291 5.94437406 61.83010151 7.9958538 70.3125 13.3125 C71.67375 14.09947266 71.67375 14.09947266 73.0625 14.90234375 C79.21306353 18.58766782 84.79383675 22.68035527 89.3125 28.3125 C89.3125 28.9725 89.3125 29.6325 89.3125 30.3125 C89.9725 30.3125 90.6325 30.3125 91.3125 30.3125 C92.6796875 32.11328125 92.6796875 32.11328125 94.1875 34.625 C94.67992187 35.42550781 95.17234375 36.22601563 95.6796875 37.05078125 C100.33522852 46.35072564 101.98175088 54.28333323 101.8125 64.6875 C101.79968994 65.88052734 101.78687988 67.07355469 101.77368164 68.30273438 C101.41251993 83.94950278 96.57633271 95.36356043 86.3125 107.3125 C58.04344098 133.19682294 6.46018274 128.60702082 -28.86621094 127.15576172 C-40.57540996 126.56470868 -52.46575505 125.93618847 -63.6875 122.3125 C-64.62529297 122.01085937 -64.62529297 122.01085937 -65.58203125 121.703125 C-83.0872293 115.94615738 -96.33717648 107.40625537 -105.0546875 90.734375 C-110.88498096 78.51586527 -110.57110798 60.91282678 -106.7421875 48.05859375 C-104.7765233 42.94058659 -102.35447849 38.09778172 -99.6875 33.3125 C-98.96046875 32.00539062 -98.96046875 32.00539062 -98.21875 30.671875 C-95.69449151 26.78245631 -92.26857297 24.20490509 -88.6875 21.3125 C-87.91664063 20.65894531 -87.14578125 20.00539062 -86.3515625 19.33203125 C-62.50098645 0.36164999 -28.92691962 0.18128232 0 0 Z " fill="#21366F" transform="translate(256.6875,139.6875)"/>
<path d="M0 0 C6.74439804 0.53764626 12.66842317 1.88024768 19.0625 4.0625 C20.43450562 4.52885864 20.43450562 4.52885864 21.83422852 5.00463867 C51.96619861 15.5533254 74.47101149 34.69703146 88.46875 63.46875 C89.74160781 66.40411597 90.56425268 68.85293603 91 72 C91.59167969 72.03738281 92.18335938 72.07476562 92.79296875 72.11328125 C99.23752719 72.64945169 102.69829809 73.92285438 107.5625 78.3125 C111.74284769 83.56779424 114.20745486 91.98723024 113.86328125 98.64453125 C104.21467651 124.97081478 51.96352559 145.88532313 28.8125 156.66430664 C26.54111776 157.74301604 24.32693308 158.87607379 22.109375 160.05859375 C16.18227637 163.05309397 9.7811921 164.95432072 3.5 167.0625 C0.9472199 167.92634541 -1.60449017 168.79329678 -4.15625 169.66015625 C-5.3529834 170.06556641 -6.5497168 170.47097656 -7.78271484 170.88867188 C-10.33640579 171.77077851 -12.86271228 172.68798507 -15.3828125 173.66015625 C-19.33829517 175.12530804 -23.30479473 176.28189805 -27.375 177.375 C-28.97927372 177.81080404 -30.58343759 178.2470126 -32.1875 178.68359375 C-32.99445313 178.90257324 -33.80140625 179.12155273 -34.6328125 179.34716797 C-36.82443608 179.95158231 -39.0066739 180.58053564 -41.1875 181.22265625 C-61.75920155 187.24021232 -82.57500277 191.17056079 -103.8125 193.875 C-104.66742035 193.98440918 -105.5223407 194.09381836 -106.40316772 194.20654297 C-108.85781349 194.5171671 -111.31329523 194.81942061 -113.76953125 195.1171875 C-114.49761993 195.20749237 -115.22570862 195.29779724 -115.9758606 195.39083862 C-129.04744707 196.92287802 -136.82189426 193.16317536 -147.1875 185.25 C-159.34124633 174.98727417 -169.0502515 161.81716214 -175 147 C-175 146.01 -175 145.02 -175 144 C-175.99 144.061875 -176.98 144.12375 -178 144.1875 C-183.67482713 144.16452499 -188.21052039 142.37332156 -192.6875 138.9375 C-201.89683437 127.23915634 -202.96427323 113.4640984 -202 99 C-200.63415958 89.26838701 -197.88451696 82.34695946 -191.375 75.0625 C-186.70282135 72.20727971 -182.38943108 72.10548709 -177 72 C-177.20496094 72.7734375 -177.40992188 73.546875 -177.62109375 74.34375 C-177.89050781 75.3853125 -178.15992188 76.426875 -178.4375 77.5 C-178.70433594 78.5209375 -178.97117187 79.541875 -179.24609375 80.59375 C-181.10410236 88.98848319 -181.182951 97.17969161 -181.1875 105.75 C-181.20586914 107.54824219 -181.20586914 107.54824219 -181.22460938 109.3828125 C-181.23721025 117.12814894 -180.53541053 124.41159692 -179 132 C-178.81332764 132.93682617 -178.62665527 133.87365234 -178.43432617 134.83886719 C-178.21933472 135.90862793 -178.21933472 135.90862793 -178 137 C-177.34 137 -176.68 137 -176 137 C-176.18175781 135.85337891 -176.18175781 135.85337891 -176.3671875 134.68359375 C-176.92400835 131.12422357 -177.46309641 127.56242787 -178 124 C-178.19078125 122.77539062 -178.3815625 121.55078125 -178.578125 120.2890625 C-180.56950484 106.71923132 -181.22233808 93.21843898 -177 80 C-175.68133728 78.321702 -174.34726285 76.65542694 -173 75 C-171.96944971 72.47750022 -171.05011481 70.01334229 -170.1875 67.4375 C-165.90289539 55.4581232 -159.87439205 46.130529 -151 37 C-150.31292969 36.23945313 -149.62585938 35.47890625 -148.91796875 34.6953125 C-136.23114988 21.09052343 -118.17965026 12.82590335 -100.5625 7.6875 C-99.7780249 7.45716064 -98.9935498 7.22682129 -98.18530273 6.98950195 C-82.68745506 2.74895221 -67.664287 1.55354607 -51.66015625 1.71875 C-48.63528889 1.74989407 -45.61094964 1.75974548 -42.5859375 1.765625 C-31.38081292 1.81070688 -20.21921968 2.14695177 -9.03271484 2.79003906 C-6.017161 2.960605 -3.0215426 3.04696306 0 3 C0 2.01 0 1.02 0 0 Z M-129 54 C-129.71542969 54.55300781 -130.43085938 55.10601562 -131.16796875 55.67578125 C-136.91772098 60.19575533 -139.8943552 65.44796566 -143 72 C-143.5775 73.175625 -144.155 74.35125 -144.75 75.5625 C-149.25691273 87.95651002 -150.8807689 106.46391723 -146 119 C-138.38276426 135.14704984 -127.47591207 145.24199123 -110.58398438 151.52075195 C-70.51968075 165.8806698 -5.19346439 165.70891112 33.5 147.5 C41.03194763 143.91144749 46.94859411 140.06969643 51.6875 133 C52.24824219 132.175 52.80898438 131.35 53.38671875 130.5 C60.53831136 119.41762888 62.36060728 109.7632845 62.375 96.6875 C62.39949219 95.52798828 62.42398438 94.36847656 62.44921875 93.17382812 C62.48314088 83.11591679 60.15895367 74.9023828 54.875 66.3125 C54.37742187 65.48363281 53.87984375 64.65476563 53.3671875 63.80078125 C52.69042969 62.90939453 52.69042969 62.90939453 52 62 C51.34 62 50.68 62 50 62 C49.7628125 61.43023437 49.525625 60.86046875 49.28125 60.2734375 C43.43839706 49.90593624 29.47554148 42.4449126 18.33911133 39.23242188 C15.23437373 38.42842756 12.12110535 37.67531874 9 36.9375 C7.96488281 36.68162109 6.92976562 36.42574219 5.86328125 36.16210938 C-9.18633212 32.56167912 -23.67177821 31.65464848 -39.0625 31.75 C-39.96696869 31.75343414 -40.87143738 31.75686829 -41.80331421 31.76040649 C-71.42583446 31.89231526 -105.89229423 32.83553822 -129 54 Z " fill="#8494E9" transform="translate(296,108)"/>
<path d="M0 0 C5.22866463 -0.04984062 10.45718765 -0.08592606 15.68603516 -0.10986328 C17.46079928 -0.11985378 19.23554723 -0.13345081 21.01025391 -0.15087891 C38.86927375 -0.32173053 38.86927375 -0.32173053 46.08129883 1.52416992 C48.16370876 2.04059911 50.17641214 2.2603224 52.3125 2.4375 C75.02085829 4.78801428 102.38093976 15.45368417 117.19921875 33.5546875 C117.79347656 34.36164063 118.38773437 35.16859375 119 36 C119.62519531 36.84820312 120.25039063 37.69640625 120.89453125 38.5703125 C126.56641688 47.76312037 125.23601334 56.87629853 123 67 C122.04635401 70.33078308 120.7669251 73.03289936 119 76 C118.52820313 76.91523438 118.05640625 77.83046875 117.5703125 78.7734375 C113.13200099 87.03421826 107.50602783 93.36550336 101 100 C100.19949219 100.83917969 99.39898437 101.67835938 98.57421875 102.54296875 C94.71487903 106.52228794 90.80873122 110.10690472 86.30078125 113.33203125 C82.73342524 115.91821294 79.28398586 118.66156174 75.83105469 121.39819336 C73.12222285 123.50826154 70.42272157 125.38808215 67.421875 127.0625 C64.32264102 128.81731742 61.62558992 130.7030329 58.8125 132.875 C54.08352028 136.36836395 49.28529282 139.0342247 43.98828125 141.5625 C41.00171881 142.99917317 38.0945875 144.53425445 35.1875 146.125 C34.28902344 146.61613281 33.39054687 147.10726562 32.46484375 147.61328125 C30.35773819 148.79873683 28.3069177 150.04353295 26.25 151.3125 C22.59478576 153.2103997 20.05862137 153.66868397 16 154 C16 154.66 16 155.32 16 156 C13.3178445 157.32448399 10.63012713 158.6346159 7.9375 159.9375 C7.18533203 160.31068359 6.43316406 160.68386719 5.65820312 161.06835938 C1.03260236 163.29105065 -2.87848444 164.57150667 -8 165 C-8 165.66 -8 166.32 -8 167 C-11.63 167.99 -15.26 168.98 -19 170 C-16.69072854 165.38145708 -14.68448915 164.56557861 -10.19921875 162.6875 C-9.52582962 162.39190186 -8.85244049 162.09630371 -8.15864563 161.79174805 C-6.00675243 160.84874916 -3.8479559 159.92319359 -1.6875 159 C0.46133342 158.07497194 2.60825047 157.14612465 4.75151062 156.20825195 C6.08369588 155.62594353 7.4191891 155.05112528 8.75837708 154.48510742 C15.01029443 151.76480868 19.29059035 147.84396422 24 143 C22.35 143.33 20.7 143.66 19 144 C19 144.66 19 145.32 19 146 C17.94941406 146.45890625 16.89882813 146.9178125 15.81640625 147.390625 C14.39843117 148.01040219 12.98046278 148.63019468 11.5625 149.25 C10.87478516 149.55035156 10.18707031 149.85070312 9.47851562 150.16015625 C7.31810124 151.10470952 5.1589345 152.05206953 3 153 C2.31147949 153.30083496 1.62295898 153.60166992 0.91357422 153.91162109 C-3.46410281 155.83779899 -7.80108019 157.83869354 -12.125 159.8828125 C-47.46965879 176.58866625 -83.5023518 189.12091002 -121.46679688 198.32666016 C-123.96943142 198.90036558 -123.96943142 198.90036558 -126 200 C-127.95381063 200.30173528 -129.91350771 200.56558274 -131.875 200.8125 C-138.89375848 201.76763002 -145.79278493 203.1080123 -152.71826172 204.59106445 C-157.82617036 205.65928764 -162.73878975 206.27388812 -167.95996094 206.45874023 C-168.96978027 206.72666382 -168.96978027 206.72666382 -170 207 C-170.68442017 208.32430784 -171.35086422 209.65804435 -172 211 C-173.88842773 211.77099609 -173.88842773 211.77099609 -176.24609375 212.1484375 C-177.59356689 212.36838379 -177.59356689 212.36838379 -178.96826172 212.59277344 C-194.4573244 214.6732821 -210.10702687 216.67982657 -225.75878906 216.078125 C-228.36769067 215.9871829 -230.97580011 215.94833485 -233.5859375 215.90625 C-260.77549413 215.30727378 -290.22183038 211.31080725 -310.9765625 192.2109375 C-313.04458666 189.95128176 -314.44804004 187.62846398 -316 185 C-316.66 184.67 -317.32 184.34 -318 184 C-317.505 186.475 -317.505 186.475 -317 189 C-319.55852995 187.10891264 -319.98988638 186.05443706 -320.58203125 182.8671875 C-321.63588832 173.11654734 -322.47580248 162.05426098 -318 153 C-317.34 152.67 -316.68 152.34 -316 152 C-316.66 157.28 -317.32 162.56 -318 168 C-313.95833333 166.47916667 -313.95833333 166.47916667 -312.875 163.75 C-312.441875 162.38875 -312.441875 162.38875 -312 161 C-311.33333333 159 -310.66666667 157 -310 155 C-309.74605469 154.19433594 -309.49210937 153.38867188 -309.23046875 152.55859375 C-301.4862716 129.39191037 -279.35906649 107.88095595 -259 95 C-258.34 95 -257.68 95 -257 95 C-257 97 -257 97 -259 99.125 C-260.55363331 100.63523573 -262.12721595 102.11627884 -263.7265625 103.578125 C-275.81371334 115.01863814 -288.05620419 131.62495191 -290.3359375 148.484375 C-290.50403299 158.23391334 -287.29655983 166.49647648 -281.02734375 173.9453125 C-270.91957679 184.18940772 -256.04131362 190.59271504 -242.1875 193.5625 C-241.04667969 193.81128906 -239.90585938 194.06007813 -238.73046875 194.31640625 C-231.55110359 195.63199672 -224.47128271 196.15620733 -217.1796875 196.16796875 C-215.96081345 196.17438889 -215.96081345 196.17438889 -214.71731567 196.18093872 C-212.10315347 196.19087566 -209.48917743 196.19099857 -206.875 196.1875 C-205.9768457 196.18656342 -205.07869141 196.18562683 -204.15332031 196.18466187 C-190.33915732 196.15341994 -176.70963737 195.83410283 -163 194 C-161.84822266 193.84934082 -160.69644531 193.69868164 -159.50976562 193.54345703 C-103.87905188 186.0536002 -47.2798546 170.00988417 2.11035156 143.02246094 C5.02829404 141.44360524 7.97703696 139.93531147 10.9375 138.4375 C11.87464844 137.96183594 12.81179688 137.48617187 13.77734375 136.99609375 C16 136 16 136 18 136 C18 135.34 18 134.68 18 134 C19.22009766 133.34257812 19.22009766 133.34257812 20.46484375 132.671875 C45.90817335 118.59075221 74.73195754 99.28222016 84.34375 70.40234375 C87.28801512 59.62423036 87.14966908 49.0513371 82 39 C77.11018975 30.61253723 71.22036089 25.0674883 63 20 C61.89914062 19.32066406 60.79828125 18.64132813 59.6640625 17.94140625 C43.21090833 8.28540459 24.60393995 5.00312617 6 2 C4.80117188 1.80019531 3.60234375 1.60039063 2.3671875 1.39453125 C1.58601563 1.26433594 0.80484375 1.13414063 0 1 C0 0.67 0 0.34 0 0 Z " fill="#8C94EE" transform="translate(347,119)"/>
<path d="M0 0 C1 3 1 3 0.03125 5.26953125 C-2.99824479 10.30065652 -5.84848321 14.0370546 -10.4765625 17.64453125 C-12.77200903 19.68689009 -13.70629595 22.24384789 -15 25 C-22.83452168 36.79546944 -36.64577386 43.92856522 -49 50 C-49.73524902 50.37012207 -50.47049805 50.74024414 -51.22802734 51.12158203 C-61.8455475 56.45833599 -72.44966938 60.73526994 -83.78271484 64.28076172 C-86.79937809 65.25930058 -89.76901366 66.35324455 -92.74560547 67.4465332 C-97.9682158 69.36094739 -102.97725482 71.16700676 -108.5 72 C-124.08341936 74.40834663 -140.4769325 81.92125082 -152.58203125 91.96875 C-154 93 -154 93 -156 93 C-156.495 92.01 -156.495 92.01 -157 91 C-159.25245881 93.68841859 -160.88213958 95.64641875 -162 99 C-162.7425 99.37125 -163.485 99.7425 -164.25 100.125 C-167.76692496 102.52290338 -168.94646736 105.17583429 -170.7890625 108.94140625 C-172 111 -172 111 -175 113 C-175.2294373 108.10936279 -174.87477546 104.96296483 -172.625 100.625 C-169.41858508 94.05223023 -166.64587275 87.3551676 -163.9375 80.5625 C-163.5264502 79.53914551 -163.11540039 78.51579102 -162.69189453 77.46142578 C-162.28696777 76.44419434 -161.88204102 75.42696289 -161.46484375 74.37890625 C-161.04372314 73.35297363 -160.62260254 72.32704102 -160.1887207 71.27001953 C-158.90983529 67.96732483 -158.90983529 67.96732483 -158.16088867 64.27294922 C-157.17917048 60.33735461 -156.23295988 57.39557306 -154 54 C-148.72610245 51.08439616 -143.31506532 50.09342488 -137.4375 49 C-135.83276591 48.65326708 -134.22947555 48.29978613 -132.62768555 47.93969727 C-129.48842151 47.23805416 -126.34563335 46.56158899 -123.19628906 45.90673828 C-118.15398734 44.84087102 -113.22958897 43.47786188 -108.3125 41.9375 C-107.54325195 41.6995874 -106.77400391 41.4616748 -105.98144531 41.21655273 C-103.650882 40.48806755 -101.32551229 39.74443289 -99 39 C-98.16823242 38.73993164 -97.33646484 38.47986328 -96.47949219 38.21191406 C-66.81193594 28.90723905 -37.86482089 17.2909938 -9.66796875 4.22460938 C-6.46873128 2.75614532 -3.24587005 1.36177307 0 0 Z " fill="#392EA4" transform="translate(377,278)"/>
<path d="M0 0 C0 2 0 2 -2 4.125 C-3.55363331 5.63523573 -5.12721595 7.11627884 -6.7265625 8.578125 C-18.81371334 20.01863814 -31.05620419 36.62495191 -33.3359375 53.484375 C-33.50498256 63.28898821 -30.24497054 71.45499213 -24.015625 78.984375 C-20.73413979 82.26586021 -17.00340888 84.68510371 -13 87 C-13.66 87.99 -14.32 88.98 -15 90 C-2.59731206 101.0246115 11.82628093 106.3676205 28 109 C28 109.66 28 110.32 28 111 C60.7640101 110.5536104 92.00130365 107.97926506 124.15039062 101.50317383 C127 101 127 101 130 101 C129.67 101.99 129.34 102.98 129 104 C126.98046875 104.80859375 126.98046875 104.80859375 124.1875 105.4375 C123.11113281 105.68113281 122.03476563 105.92476563 120.92578125 106.17578125 C119.61752532 106.452125 118.30889664 106.72670709 117 107 C116.21931152 107.16677246 115.43862305 107.33354492 114.63427734 107.50537109 C112.0497462 108.05481477 109.46305818 108.59242709 106.875 109.125 C106.05281982 109.29572021 105.23063965 109.46644043 104.38354492 109.64233398 C99.2462901 110.66917161 94.27588725 111.26713661 89.03564453 111.45654297 C88.36388184 111.63588379 87.69211914 111.81522461 87 112 C86.31590625 113.32447649 85.64946021 114.65820134 85 116 C83.11157227 116.77099609 83.11157227 116.77099609 80.75390625 117.1484375 C79.85559082 117.29506836 78.95727539 117.44169922 78.03173828 117.59277344 C62.5426756 119.6732821 46.89297313 121.67982657 31.24121094 121.078125 C28.63230933 120.9871829 26.02419989 120.94833485 23.4140625 120.90625 C-3.77549413 120.30727378 -33.22183038 116.31080725 -53.9765625 97.2109375 C-56.04458666 94.95128176 -57.44804004 92.62846398 -59 90 C-59.66 89.67 -60.32 89.34 -61 89 C-60.67 90.65 -60.34 92.3 -60 94 C-62.55852995 92.10891264 -62.98988638 91.05443706 -63.58203125 87.8671875 C-64.63588832 78.11654734 -65.47580248 67.05426098 -61 58 C-60.01 57.505 -60.01 57.505 -59 57 C-59.66 62.28 -60.32 67.56 -61 73 C-56.95833333 71.47916667 -56.95833333 71.47916667 -55.875 68.75 C-55.441875 67.38875 -55.441875 67.38875 -55 66 C-54.33333333 64 -53.66666667 62 -53 60 C-52.74605469 59.19433594 -52.49210937 58.38867188 -52.23046875 57.55859375 C-47.12225175 42.27741694 -18.74161055 0 0 0 Z " fill="#37C6F5" transform="translate(90,214)"/>
<path d="M0 0 C1.53214601 4.65221071 -0.3217514 7.74073989 -2.375 11.9375 C-2.74149658 12.69385742 -3.10799316 13.45021484 -3.4855957 14.22949219 C-12.53705464 32.42071698 -25.45175482 45.94015964 -43 56 C-43.57411621 56.34369629 -44.14823242 56.68739258 -44.73974609 57.04150391 C-54.76441333 63.0338085 -65.22911988 66.73390073 -76.35546875 70.1796875 C-78.8985911 70.96854377 -81.43438333 71.77725548 -83.96875 72.59375 C-90.70401333 74.75570325 -97.44824001 76.85700027 -104.25341797 78.78833008 C-114.5158153 81.71227373 -124.50319297 85.29768535 -134.48779297 89.05517578 C-136.03436544 89.63683132 -137.58254122 90.21426957 -139.13330078 90.78466797 C-159.55577438 98.3005922 -178.1626584 109.00061299 -194 124 C-194.33 123.34 -194.66 122.68 -195 122 C-194.09176973 119.56442428 -193.13171929 117.23804483 -192.0625 114.875 C-191.77181641 114.21628906 -191.48113281 113.55757813 -191.18164062 112.87890625 C-190.46139802 111.24950495 -189.73158857 109.62433868 -189 108 C-188.34 109.32 -187.68 110.64 -187 112 C-186.608125 111.319375 -186.21625 110.63875 -185.8125 109.9375 C-184.42266785 107.68501341 -183.03236755 105.45026469 -181.5625 103.25 C-180.97662109 102.36054688 -180.97662109 102.36054688 -180.37890625 101.453125 C-178.6855435 99.66861808 -177.39270868 99.38608463 -175 99 C-174.938125 98.443125 -174.87625 97.88625 -174.8125 97.3125 C-173.66626128 94.05012827 -171.50609803 92.31332126 -169 90 C-169 90.99 -169 91.98 -169 93 C-168.03320312 92.33613281 -167.06640625 91.67226563 -166.0703125 90.98828125 C-151.44553663 81.02729701 -135.95275346 72.4248217 -118 71 C-115.30595842 70.04423006 -112.65549725 69.0518667 -110 68 C-108.72593868 67.50995169 -107.45121396 67.02162412 -106.17578125 66.53515625 C-105.23303345 66.17514526 -105.23303345 66.17514526 -104.27124023 65.80786133 C-103.62485596 65.56189209 -102.97847168 65.31592285 -102.3125 65.0625 C-101.61390869 64.79655029 -100.91531738 64.53060059 -100.19555664 64.2565918 C-96.14579116 62.73671744 -92.11643832 61.44314114 -87.9375 60.3125 C-72.39267953 55.70158329 -53.8334302 47.27369426 -41.5 36.6875 C-37.28467153 33.09489051 -37.28467153 33.09489051 -34 32 C-33.31379969 30.67661368 -32.65213539 29.34050052 -32 28 C-31.154375 27.01 -30.30875 26.02 -29.4375 25 C-26.90189285 22.3503619 -26.90189285 22.3503619 -26.5625 19.875 C-25.6140188 16.71339601 -22.68657504 15.69966993 -20 14 C-19.34 13.01 -18.68 12.02 -18 11 C-17.10023438 10.70351563 -16.20046875 10.40703125 -15.2734375 10.1015625 C-11.48376073 8.82627748 -8.71971629 6.82020793 -5.625 4.375 C-5.07972656 3.95476562 -4.53445313 3.53453125 -3.97265625 3.1015625 C-2.64278222 2.07499307 -1.32057207 1.03850813 0 0 Z " fill="#6044CB" transform="translate(390,278)"/>
<path d="M0 0 C4.6228907 2.26056448 8.14694935 5.11224322 10 10 C10.71669548 16.16171954 10.68012492 21.79706477 7 27 C2.68421053 31 2.68421053 31 0 31 C2.24651895 46.82622306 6.8478013 60.50498621 17 73 C17 73.66 17 74.32 17 75 C-6.265 74.505 -6.265 74.505 -30 74 C-27.03 69.545 -27.03 69.545 -24 65 C-17.84484465 54.33106405 -14.4429349 43.0110966 -12 31 C-12.61617187 30.70867188 -13.23234375 30.41734375 -13.8671875 30.1171875 C-17.85644024 28.02757892 -20.28421058 25.1119781 -22 21 C-22.69306569 16.11630455 -22.55914129 12.13978801 -20.375 7.6875 C-19.59125 6.800625 -18.8075 5.91375 -18 5 C-17.175 4.05125 -16.35 3.1025 -15.5 2.125 C-10.99274451 -1.38699857 -5.37419954 -1.00590384 0 0 Z " fill="#156AD5" transform="translate(261,30)"/>
<path d="M0 0 C3.20492574 0.02373294 6.40902121 0.02051417 9.61401367 0.01391602 C40.08745265 0.05415138 40.08745265 0.05415138 46.51049805 4.33618164 C45.85049805 4.33618164 45.19049805 4.33618164 44.51049805 4.33618164 C44.51049805 5.32618164 44.51049805 6.31618164 44.51049805 7.33618164 C45.50049805 7.66618164 46.49049805 7.99618164 47.51049805 8.33618164 C40.43924547 8.43562113 33.46120291 8.38013798 26.40893555 7.84790039 C16.96606776 7.20550156 7.52822972 7.11492834 -1.93383789 7.09594727 C-4.8537216 7.08621756 -7.77290627 7.0550554 -10.69262695 7.02368164 C-26.22158955 6.93565613 -40.96831825 8.59816758 -55.92700195 12.96118164 C-57.2264978 13.33968262 -57.2264978 13.33968262 -58.55224609 13.72583008 C-81.02544732 20.59417285 -104.58586294 34.14626174 -117.1574707 54.76977539 C-122.07037686 64.23540396 -126.16670356 73.89464983 -128.48950195 84.33618164 C-129.14950195 83.67618164 -129.80950195 83.01618164 -130.48950195 82.33618164 C-130.97536596 83.85488862 -131.45281397 85.37628863 -131.92700195 86.89868164 C-132.19383789 87.7455957 -132.46067383 88.59250977 -132.7355957 89.46508789 C-136.13695493 102.41845074 -135.73793638 118.59087836 -131.48950195 131.33618164 C-131.42147229 133.06413516 -131.40454551 134.79453529 -131.42700195 136.52368164 C-131.43602539 137.42473633 -131.44504883 138.32579102 -131.4543457 139.25415039 C-131.46594727 139.9412207 -131.47754883 140.62829102 -131.48950195 141.33618164 C-132.14950195 141.33618164 -132.80950195 141.33618164 -133.48950195 141.33618164 C-133.97536596 139.81747466 -134.45281397 138.29607465 -134.92700195 136.77368164 C-135.19383789 135.92676758 -135.46067383 135.07985352 -135.7355957 134.20727539 C-140.01137439 117.92386952 -141.01775901 91.46456808 -132.48950195 76.33618164 C-133.80950195 76.00618164 -135.12950195 75.67618164 -136.48950195 75.33618164 C-135.86430664 75.2549707 -135.23911133 75.17375977 -134.5949707 75.09008789 C-132.36076029 74.55212349 -132.36076029 74.55212349 -131.5402832 72.61352539 C-131.29665039 71.84137695 -131.05301758 71.06922852 -130.80200195 70.27368164 C-125.8851993 56.95257678 -118.47705581 46.29314575 -108.48950195 36.33618164 C-107.88493164 35.67231445 -107.28036133 35.00844727 -106.6574707 34.32446289 C-93.12659799 19.67424791 -72.18555352 12.24532509 -53.4855957 6.90893555 C-51.82395804 6.43214959 -50.1710595 5.92503577 -48.52075195 5.41040039 C-32.62795713 0.62784639 -16.47686616 -0.13017697 0 0 Z " fill="#A0D1F8" transform="translate(251.489501953125,103.663818359375)"/>
<path d="M0 0 C-0.20496094 0.7734375 -0.40992187 1.546875 -0.62109375 2.34375 C-0.89050781 3.3853125 -1.15992187 4.426875 -1.4375 5.5 C-1.70433594 6.5209375 -1.97117187 7.541875 -2.24609375 8.59375 C-4.10410236 16.98848319 -4.182951 25.17969161 -4.1875 33.75 C-4.20586914 35.54824219 -4.20586914 35.54824219 -4.22460938 37.3828125 C-4.24074489 47.30077871 -3.13790242 56.70542801 -0.375 66.25 C-0.11460938 67.16265625 0.14578125 68.0753125 0.4140625 69.015625 C0.60742188 69.67046875 0.80078125 70.3253125 1 71 C-5.93932481 71.50264727 -10.37407472 71.27570321 -16 67 C-25.09198751 55.63501561 -25.93541431 41.03121464 -25 27 C-23.6738517 17.55119334 -21.18923155 9.58640421 -14 3.0625 C-9.26552884 -0.19244892 -5.60474986 -0.0230965 0 0 Z " fill="#3631AC" transform="translate(119,180)"/>
<path d="M0 0 C0.99 0.495 0.99 0.495 2 1 C-1.465 3.475 -1.465 3.475 -5 6 C-4.67 6.66 -4.34 7.32 -4 8 C-14.16366496 13.2128826 -24.4359859 18.08620759 -34.89892578 22.67333984 C-35.80755371 23.07762207 -36.71618164 23.4819043 -37.65234375 23.8984375 C-38.46695068 24.25599121 -39.28155762 24.61354492 -40.12084961 24.98193359 C-42.16838045 25.85892989 -42.16838045 25.85892989 -43 28 C-41.35 27.67 -39.7 27.34 -38 27 C-40.54020079 30.10468986 -43.17370067 30.98485936 -47 32 C-48.32 32 -49.64 32 -51 32 C-51 32.66 -51 33.32 -51 34 C-60.11056223 37.5370194 -69.24992504 40.98009103 -78.4375 44.3125 C-79.66404297 44.76689453 -80.89058594 45.22128906 -82.15429688 45.68945312 C-83.93223633 46.33237305 -83.93223633 46.33237305 -85.74609375 46.98828125 C-87.33442017 47.56896362 -87.33442017 47.56896362 -88.95483398 48.16137695 C-92.11071575 49.03049055 -94.74344929 49.15693119 -98 49 C-98 49.66 -98 50.32 -98 51 C-98.96719971 51.24161865 -99.93439941 51.4832373 -100.9309082 51.73217773 C-107.32551827 53.33003589 -113.71991591 54.92870199 -120.11251831 56.53457642 C-122.79643934 57.20871096 -125.48060825 57.88185568 -128.16479492 58.55493164 C-129.51874061 58.89468458 -130.87258104 59.23485723 -132.22631836 59.57543945 C-175.15890285 70.3741806 -175.15890285 70.3741806 -197 71 C-196.48828125 68.6015625 -196.48828125 68.6015625 -195 66 C-192.26796169 65.17884498 -189.98397471 64.71164356 -187.1875 64.375 C-185.63237351 64.14751226 -184.07768456 63.91701428 -182.5234375 63.68359375 C-181.75354492 63.57257324 -180.98365234 63.46155273 -180.19042969 63.34716797 C-177.18858489 62.87139631 -174.2612837 62.16923521 -171.3125 61.4375 C-166.98197487 60.39238564 -162.73354975 59.6674912 -158.3125 59.125 C-150.55462164 58.07135606 -143.25836784 56.00533781 -135.76611328 53.80224609 C-132.66187573 52.90193501 -129.54876106 52.03749947 -126.43359375 51.17578125 C-90.68066472 41.2377884 -56.51448611 27.63214704 -23.0546875 11.640625 C-22.27343506 11.26848877 -21.49218262 10.89635254 -20.68725586 10.51293945 C-19.24242391 9.82227372 -17.80026794 9.12596599 -16.36157227 8.42260742 C-12.92753069 6.77233671 -9.7837967 5.53016729 -6 5 C-6 4.34 -6 3.68 -6 3 C-4.03533587 1.93224776 -2.03144641 0.93446535 0 0 Z " fill="#5F53D8" transform="translate(372,260)"/>
<path d="M0 0 C6.14384203 -0.37615359 10.67510763 0.4228107 15.6328125 4.265625 C20.92962709 9.53582243 22.7654883 16.79726279 24 24 C23.66383462 30.31243882 18.98608344 33.59906542 14.55810547 37.62646484 C-5.05245961 54.91399839 -44.90869141 88 -72 88 C-71.875 86.125 -71.875 86.125 -71 84 C-68.625 83.0625 -68.625 83.0625 -65 82 C-62.10878305 80.71727699 -59.25018443 79.37508718 -56.390625 78.0234375 C-54 77 -54 77 -52 77 C-52 76.34 -52 75.68 -52 75 C-50.80375 74.443125 -49.6075 73.88625 -48.375 73.3125 C-45.47877771 71.87979429 -43.06374934 70.3688144 -40.625 68.25 C-38 66 -38 66 -36 66 C-35.7525 65.46375 -35.505 64.9275 -35.25 64.375 C-34.8375 63.59125 -34.425 62.8075 -34 62 C-33.484375 60.989375 -32.96875 59.97875 -32.4375 58.9375 C-29.55822231 55.46760124 -27.72290493 54.94758285 -23.51171875 53.78515625 C-19.86784455 52.64609138 -16.62451156 50.87292885 -13.26171875 49.0859375 C-11.16416854 48.07882358 -9.27107524 47.46772717 -7 47 C-7 46.34 -7 45.68 -7 45 C-5.04969533 43.66653588 -3.00995631 42.56108684 -0.9453125 41.4140625 C1.44105929 39.67939063 2.10077665 38.8221779 3 36 C3.31159472 33.03753635 3.33128158 30.10188008 3.3125 27.125 C3.31121094 26.28453125 3.30992187 25.4440625 3.30859375 24.578125 C3.20878451 18.010677 2.27992335 12.06192132 0.65625 5.6875 C0 3 0 3 0 0 Z " fill="#2140B1" transform="translate(386,180)"/>
<path d="M0 0 C1.55373847 3.10747694 0.58528628 5.74226527 0.0625 9.125 C-0.22947266 11.04699219 -0.22947266 11.04699219 -0.52734375 13.0078125 C-0.68332031 13.99523437 -0.83929687 14.98265625 -1 16 C2.35760979 14.59339583 2.35760979 14.59339583 4.125 11.4375 C4.41375 10.633125 4.7025 9.82875 5 9 C5.66 8.67 6.32 8.34 7 8 C7.10957031 8.70125 7.21914063 9.4025 7.33203125 10.125 C9.11371266 20.78611804 11.6494798 29.85461152 20.3671875 36.91796875 C22.86567596 38.69880627 25.39868373 40.37365873 28 42 C28.63292969 42.4021875 29.26585937 42.804375 29.91796875 43.21875 C33.50269466 45.38435101 37.16627004 46.92518514 41.10546875 48.2890625 C43 49 43 49 44.71875 49.9609375 C48.11399871 51.50740352 51.6833554 52.21418711 55.3125 53 C56.11647217 53.17515137 56.92044434 53.35030273 57.7487793 53.53076172 C72.00618896 56.55501803 86.50586037 57.69739129 101 59 C100.67 59.99 100.34 60.98 100 62 C31.42070615 62.48305744 31.42070615 62.48305744 8 42 C6.29553281 40.2429258 4.72246046 38.47303614 3.21875 36.54296875 C1.91987049 34.89855399 0.50443436 33.45632744 -1 32 C-0.67 33.65 -0.34 35.3 0 37 C-2.55852995 35.10891264 -2.98988638 34.05443706 -3.58203125 30.8671875 C-4.67027535 20.79838696 -5.1377335 10.45461384 -1 1 C-0.67 0.67 -0.34 0.34 0 0 Z " fill="#6CDFF3" transform="translate(30,271)"/>
<path d="M0 0 C0.495 0.99 0.495 0.99 1 2 C0.18208984 2.32871094 0.18208984 2.32871094 -0.65234375 2.6640625 C-12.64182973 7.70579507 -29.00715296 18.01430591 -35 30 C-34.01 30.33 -33.02 30.66 -32 31 C-35.75 34 -35.75 34 -38 34 C-38.33 33.34 -38.66 32.68 -39 32 C-41.25245881 34.68841859 -42.88213958 36.64641875 -44 40 C-44.7425 40.37125 -45.485 40.7425 -46.25 41.125 C-49.76692496 43.52290338 -50.94646736 46.17583429 -52.7890625 49.94140625 C-54 52 -54 52 -57 54 C-57.2294373 49.10936279 -56.87477546 45.96296483 -54.625 41.625 C-51.35476997 34.93624789 -48.56020235 28.10648578 -45.8125 21.1875 C-45.38469238 20.11387207 -44.95688477 19.04024414 -44.51611328 17.93408203 C-42.28438257 12.31061018 -40.10107161 6.67357773 -38 1 C-35.87506859 0.97306425 -33.75004088 0.95363372 -31.625 0.9375 C-30.44164062 0.92589844 -29.25828125 0.91429687 -28.0390625 0.90234375 C-25 1 -25 1 -23 2 C-20.61796369 1.74665384 -18.24323818 1.42267937 -15.875 1.0625 C-10.53157162 0.28302412 -5.4013074 -0.22046153 0 0 Z " fill="#4C32B6" transform="translate(259,337)"/>
<path d="M0 0 C2.97 0.66 5.94 1.32 9 2 C9.10957031 3.20914063 9.21914063 4.41828125 9.33203125 5.6640625 C10.19413384 14.71150478 11.30540209 23.46030184 13.4140625 32.3125 C14 35 14 35 14 38 C10.7 38 7.4 38 4 38 C4 39.65 4 41.3 4 43 C-3.26 43 -10.52 43 -18 43 C-15.03 38.545 -15.03 38.545 -12 34 C-5.84484465 23.33106405 -2.4429349 12.0110966 0 0 Z " fill="#07AFED" transform="translate(249,61)"/>
<path d="M0 0 C1.9323106 2.8984659 3.24732834 5.71056802 4.6875 8.875 C8.44135595 16.39177918 12.13795548 19.12300189 19.9375 21.8125 C21.28802411 22.22058825 22.64103467 22.62096885 24 23 C22.51510938 25.96978125 20.38939036 26.0786084 17.3125 27.1875 C10.41029849 30.00405672 6.8946052 32.92481146 3.7578125 39.671875 C2.76508066 42.09550997 1.84748425 44.52235487 1 47 C-1.18469601 44.81530399 -2.02654889 42.9814068 -3.3125 40.1875 C-7.2424904 32.27056282 -11.92683996 29.08412855 -20 26 C-20.99 25.67 -21.98 25.34 -23 25 C-23 24.34 -23 23.68 -23 23 C-22.21496094 22.731875 -21.42992187 22.46375 -20.62109375 22.1875 C-12.09440875 19.00699418 -6.67707208 15.60187322 -2.69140625 7.26171875 C-1.70999727 4.86083241 -0.81243174 2.46252602 0 0 Z " fill="#2ED6F7" transform="translate(347,44)"/>
<path d="M0 0 C14.85 0 29.7 0 45 0 C42.79165336 7.72921323 40.36173994 12.28002824 33.4375 16.4375 C26.97016644 19.32848533 19.16041528 19.09177982 12.5625 16.8125 C6.78697037 12.72736929 3.06145606 9.35840875 0 3 C0 2.01 0 1.02 0 0 Z " fill="#9AF0E1" transform="translate(231,222)"/>
<path d="M0 0 C3.97378129 2.00235283 6.53566815 4.30350222 9 8 C9.7566428 12.56895843 10.04593826 17.10609287 7.76171875 21.2421875 C4.83166377 24.7466205 2.65499628 26.74146104 -2.0859375 27.203125 C-6.89115222 27.3015253 -10.19367016 27.26256844 -14 24 C-16.81013746 20.73416458 -18.25994127 18.2150513 -18.4375 13.9375 C-17.78562697 8.07064274 -15.38530156 4.83713886 -11 1 C-7.2549641 -0.2483453 -3.88182002 -0.64697 0 0 Z " fill="#7AF3E5" transform="translate(313,180)"/>
<path d="M0 0 C4.32372082 1.99088726 7.34679944 4.02019916 10 8 C10.5840703 12.47534388 10.52465129 16.65922448 8.875 20.875 C5.30051279 24.92608551 2.00110771 27.22660114 -3.4375 27.625 C-8.00615825 27.43174034 -10.41982347 25.6689155 -13.6875 22.60546875 C-16.84930643 18.73790196 -16.45851079 13.72682945 -16 9 C-13.04015134 1.98983213 -7.63637791 -1.65338091 0 0 Z " fill="#73F0E5" transform="translate(201,180)"/>
<path d="M0 0 C-0.5259375 0.928125 -0.5259375 0.928125 -1.0625 1.875 C-1.371875 2.57625 -1.68125 3.2775 -2 4 C-1.505 4.99 -1.505 4.99 -1 6 C-1.64324219 6.42667969 -2.28648437 6.85335937 -2.94921875 7.29296875 C-22.92374001 21.11271599 -35.69843156 39.16818759 -41 63 C-41.66 62.34 -42.32 61.68 -43 61 C-43.485864 62.51870698 -43.96331201 64.04010699 -44.4375 65.5625 C-44.70433594 66.40941406 -44.97117187 67.25632812 -45.24609375 68.12890625 C-48.64745297 81.0822691 -48.24843443 97.25469672 -44 110 C-43.93197033 111.72795352 -43.91504355 113.45835365 -43.9375 115.1875 C-43.95103516 116.53908203 -43.95103516 116.53908203 -43.96484375 117.91796875 C-43.97644531 118.60503906 -43.98804687 119.29210937 -44 120 C-44.66 120 -45.32 120 -46 120 C-46.485864 118.48129302 -46.96331201 116.95989301 -47.4375 115.4375 C-47.70433594 114.59058594 -47.97117187 113.74367188 -48.24609375 112.87109375 C-52.52187243 96.58768788 -53.52825706 70.12838643 -45 55 C-46.32 54.67 -47.64 54.34 -49 54 C-48.37480469 53.91878906 -47.74960938 53.83757812 -47.10546875 53.75390625 C-44.87125834 53.21594184 -44.87125834 53.21594184 -44.05078125 51.27734375 C-43.80714844 50.50519531 -43.56351562 49.73304688 -43.3125 48.9375 C-38.39569735 35.61639514 -30.98755386 24.95696411 -21 15 C-20.39542969 14.33613281 -19.79085937 13.67226562 -19.16796875 12.98828125 C-14.80497314 8.26435656 -6.60867887 0 0 0 Z " fill="#EACBF7" transform="translate(164,125)"/>
<path d="M0 0 C0.66 0 1.32 0 2 0 C2.4125 1.19625 2.825 2.3925 3.25 3.625 C5.29234221 9.0424805 7.82677124 14.06384314 13 17 C15.96823708 18.11115981 18.96578312 19.08584491 22 20 C22 20.66 22 21.32 22 22 C20.80375 22.4125 19.6075 22.825 18.375 23.25 C8.90921239 26.93299131 6.04119388 31.88581805 2 41 C1.34 41 0.68 41 0 41 C-0.20753906 40.34773438 -0.41507813 39.69546875 -0.62890625 39.0234375 C-2.85645485 32.7042829 -5.19735083 28.5234523 -11 25 C-13.64856137 23.78008469 -16.2091212 22.88133015 -19 22 C-19 21.34 -19 20.68 -19 20 C-18.33613281 19.76925781 -17.67226562 19.53851563 -16.98828125 19.30078125 C-10.20600298 16.7957938 -5.99297281 14.41652482 -2.25 8 C-1.12186786 5.29248287 -0.42534325 2.8923341 0 0 Z " fill="#FDD35B" transform="translate(133,55)"/>
<path d="M0 0 C-0.763125 0.86625 -1.52625 1.7325 -2.3125 2.625 C-6.23323583 8.04516738 -6.8711538 14.54727106 -8 21 C-8.17039795 21.77931885 -8.3407959 22.5586377 -8.51635742 23.36157227 C-9.01993798 26.10876819 -9.20730444 28.72964202 -9.31640625 31.51953125 C-9.35830078 32.54111328 -9.40019531 33.56269531 -9.44335938 34.61523438 C-9.50233398 36.19788086 -9.50233398 36.19788086 -9.5625 37.8125 C-9.60568359 38.88693359 -9.64886719 39.96136719 -9.69335938 41.06835938 C-9.79910983 43.71212082 -9.90120233 46.3559711 -10 49 C-12.84715618 46.36696602 -13.53710124 44.66486187 -14.1875 40.8125 C-14.34605469 39.91144531 -14.50460938 39.01039063 -14.66796875 38.08203125 C-14.77753906 37.39496094 -14.88710937 36.70789063 -15 36 C-16.485 36.495 -16.485 36.495 -18 37 C-18 39.97 -18 42.94 -18 46 C-19.485 46.495 -19.485 46.495 -21 47 C-25.12723476 36.22972603 -23.64775847 23.75359197 -20 13 C-17.4429661 7.40535491 -14.05385778 3.47452722 -9 0 C-5.53026425 -1.15657858 -3.45845581 -0.94852164 0 0 Z " fill="#936CEE" transform="translate(117,181)"/>
<path d="M0 0 C1.5040015 1.89979137 2.88246377 3.78989861 4.06640625 5.90625 C7.45182675 11.89498064 10.72491933 14.68459056 17.4375 16.75 C17.953125 16.8325 18.46875 16.915 19 17 C19 17.66 19 18.32 19 19 C18.33613281 19.21914063 17.67226563 19.43828125 16.98828125 19.6640625 C10.93518311 21.83787585 7.47185408 23.52919964 4 29 C2.82624306 31.64333879 1.90286531 34.24388485 1 37 C-0.56826607 34.6476009 -1.66542568 32.60558817 -2.8125 30.0625 C-6.19460011 23.29829979 -11.13117957 21.32841371 -18 19 C-18 18.34 -18 17.68 -18 17 C-17.33613281 16.78085937 -16.67226563 16.56171875 -15.98828125 16.3359375 C-9.1489658 13.87977458 -5.34823175 11.74419179 -2.0390625 5.05859375 C-1.30630784 3.3947701 -0.64579708 1.69946599 0 0 Z " fill="#A76DEA" transform="translate(422,289)"/>
<path d="M0 0 C1.47981102 -0.00262848 1.47981102 -0.00262848 2.98951721 -0.00531006 C6.22325442 -0.00968146 9.45693615 -0.00680794 12.69067383 -0.00341797 C14.95030223 -0.0040922 17.20993056 -0.00506322 19.46955872 -0.00631714 C24.1926035 -0.00778759 28.91562931 -0.00565995 33.63867188 -0.00097656 C39.68789009 0.00473015 45.73706403 0.00143161 51.78628063 -0.00454903 C56.44713169 -0.00816388 61.10797225 -0.00701196 65.76882362 -0.00442123 C67.99952512 -0.00375504 70.23022758 -0.00456964 72.46092796 -0.00690079 C75.57684222 -0.00944353 78.69268482 -0.00556421 81.80859375 0 C82.72665802 -0.00202423 83.64472229 -0.00404846 84.59060669 -0.00613403 C89.08492881 0.00871473 93.28552376 0.24040736 97.71020508 1.12939453 C100.04278002 1.46799412 102.3759472 1.80259843 104.71020508 2.12939453 C104.71020508 2.45939453 104.71020508 2.78939453 104.71020508 3.12939453 C82.37829407 4.87219207 60.10581012 5.3292659 37.71020508 5.31689453 C36.42432495 5.31761963 35.13844482 5.31834473 33.81359863 5.3190918 C15.73117233 5.31793943 -2.31318168 5.24657595 -20.28979492 3.12939453 C-19.95979492 2.46939453 -19.62979492 1.80939453 -19.28979492 1.12939453 C-12.85379324 0.1163659 -6.50361468 -0.01443524 0 0 Z " fill="#ECF3F7" transform="translate(214.289794921875,408.87060546875)"/>
<path d="M0 0 C3.1795894 1.53310435 5.72819622 3.2862837 8 6 C8.70703125 8.203125 8.70703125 8.203125 9 10 C7.3524116 11.35683751 5.68083079 12.68456721 4 14 C3.071875 14.7425 2.14375 15.485 1.1875 16.25 C-3.01299532 18.5561543 -5.25793353 18.46643277 -10 18 C-10.99 17.34 -11.98 16.68 -13 16 C-15.0492094 15.54860541 -15.0492094 15.54860541 -17.1875 15.375 C-18.445625 15.25125 -19.70375 15.1275 -21 15 C-21 16.98 -21 18.96 -21 21 C-21.33 21 -21.66 21 -22 21 C-22.35073826 16.07017894 -22.58614972 12.19484365 -20.375 7.6875 C-19.199375 6.3571875 -19.199375 6.3571875 -18 5 C-17.175 4.05125 -16.35 3.1025 -15.5 2.125 C-10.9921413 -1.38746858 -5.3748069 -1.00470247 0 0 Z " fill="#41B1F0" transform="translate(261,30)"/>
<path d="M0 0 C6.40936379 0.628369 9.81459706 2.0278071 14.5625 6.3125 C18.7519301 11.57921212 21.14048885 19.93193165 20.91015625 26.6015625 C19.63758476 29.95503415 17.62729252 31.82866219 15.0625 34.3125 C14.16660156 35.19550781 13.27070313 36.07851562 12.34765625 36.98828125 C10 39 10 39 8 39 C7.97421875 37.76765625 7.9484375 36.5353125 7.921875 35.265625 C7.59815954 24.66876721 7.11697135 14.63837007 1.3671875 5.3671875 C0 3 0 3 0 0 Z " fill="#2E5DD2" transform="translate(389,180)"/>
<path d="M0 0 C0.99 0.495 0.99 0.495 2 1 C-4.91880225 11.03226326 -17.19043813 13.84828362 -28.33569336 16.85668945 C-29.20718018 17.09218506 -30.07866699 17.32768066 -30.9765625 17.5703125 C-31.82895508 17.80008789 -32.68134766 18.02986328 -33.55957031 18.26660156 C-35.85982224 18.95787375 -38.00196023 19.80520677 -40.2109375 20.7421875 C-44.48332077 22.16044257 -46.62464585 21.76237231 -51 21 C-54.26818569 21.14021192 -57.50200705 21.55773012 -60.75 21.9375 C-69.55555656 22.85213779 -78.27286226 23.19793016 -87.125 23.1875 C-88.77580566 23.18834595 -88.77580566 23.18834595 -90.45996094 23.18920898 C-97.68067719 23.14180464 -104.8141704 22.70178534 -112 22 C-112 21.67 -112 21.34 -112 21 C-110.53699463 20.970271 -110.53699463 20.970271 -109.04443359 20.93994141 C-86.03324869 20.51324012 -86.03324869 20.51324012 -63.0625 19.1875 C-62.19608887 19.12965332 -61.32967773 19.07180664 -60.43701172 19.01220703 C-55.2481651 18.53857578 -53.07899977 17.34872723 -49 14 C-46.31267838 13.49306687 -43.89182527 13.1793638 -41.1875 13 C-28.02686965 11.74119416 -16.70978725 8.92376955 -5.05053711 2.55419922 C-3.39304895 1.65318401 -1.69908452 0.81988243 0 0 Z " fill="#727CE9" transform="translate(335,251)"/>
<path d="M0 0 C0.66 0.33 1.32 0.66 2 1 C-6.34502411 9.51887878 -6.34502411 9.51887878 -10.875 13.25 C-22.99802198 23.75500909 -33.40306949 37.72884494 -36.4296875 53.671875 C-37 56 -37 56 -39 58 C-39.28875 58.845625 -39.5775 59.69125 -39.875 60.5625 C-40.24625 61.366875 -40.6175 62.17125 -41 63 C-43.0703125 63.65234375 -43.0703125 63.65234375 -45 64 C-45.65887244 46.79610848 -39.3979658 36.62173716 -28.0625 24.25 C-19.47777909 15.11976624 -10.1180891 7.35386888 0 0 Z " fill="#CBF1E3" transform="translate(74,223)"/>
<path d="M0 0 C0.99 0.495 0.99 0.495 2 1 C-1.465 3.475 -1.465 3.475 -5 6 C-4.505 6.99 -4.505 6.99 -4 8 C-14.16366496 13.2128826 -24.4359859 18.08620759 -34.89892578 22.67333984 C-35.80755371 23.07762207 -36.71618164 23.4819043 -37.65234375 23.8984375 C-38.46695068 24.25599121 -39.28155762 24.61354492 -40.12084961 24.98193359 C-42.16838045 25.85892989 -42.16838045 25.85892989 -43 28 C-41.35 27.67 -39.7 27.34 -38 27 C-40.56728043 30.18450117 -43.15303341 30.81894842 -47.0625 31.75 C-48.65771484 32.14445312 -48.65771484 32.14445312 -50.28515625 32.546875 C-53 33 -53 33 -55 32 C-57.71174407 32.93508416 -60.3453459 33.92328715 -63 35 C-65.6546541 36.07671285 -68.28825593 37.06491584 -71 38 C-71.66 37.67 -72.32 37.34 -73 37 C-72.7902832 35.14135742 -72.7902832 35.14135742 -72 33 C-70.00073242 31.77075195 -70.00073242 31.77075195 -67.35546875 30.73828125 C-66.37843994 30.34624512 -65.40141113 29.95420898 -64.39477539 29.55029297 C-63.33637451 29.14182129 -62.27797363 28.73334961 -61.1875 28.3125 C-58.98082986 27.42812554 -56.77511324 26.54136849 -54.5703125 25.65234375 C-53.46204102 25.20874512 -52.35376953 24.76514648 -51.21191406 24.30810547 C-46.61351786 22.43533207 -42.08320963 20.42705201 -37.5625 18.375 C-36.7576416 18.01124268 -35.9527832 17.64748535 -35.12353516 17.27270508 C-31.11602764 15.45122171 -27.12826585 13.59294629 -23.15625 11.6953125 C-22.3820874 11.32615723 -21.6079248 10.95700195 -20.81030273 10.57666016 C-19.35912625 9.88157073 -17.91050915 9.18110051 -16.46508789 8.47412109 C-12.99675519 6.80666175 -9.82360719 5.53044262 -6 5 C-6 4.34 -6 3.68 -6 3 C-4.03533587 1.93224776 -2.03144641 0.93446535 0 0 Z " fill="#8F45E1" transform="translate(372,260)"/>
<path d="M0 0 C6.74439804 0.53764626 12.66842317 1.88024768 19.0625 4.0625 C19.97717041 4.37340576 20.89184082 4.68431152 21.83422852 5.00463867 C39.32239226 11.12694532 54.45573264 20.29699149 68 33 C67.505 33.99 67.505 33.99 67 35 C66.34 34.67 65.68 34.34 65 34 C64.67 34.99 64.34 35.98 64 37 C63.08734375 36.09121094 63.08734375 36.09121094 62.15625 35.1640625 C47.76636016 21.40902074 30.83331958 12.96903025 12 7 C10.24880588 6.42026132 8.49856853 5.83761031 6.75 5.25 C5.5125 4.8375 4.275 4.425 3 4 C2.01 3.67 1.02 3.34 0 3 C0 2.01 0 1.02 0 0 Z " fill="#2BA2EF" transform="translate(296,108)"/>
<path d="M0 0 C1.11242065 0.05329468 1.11242065 0.05329468 2.24731445 0.10766602 C5.60213199 0.26511612 8.9572789 0.41390902 12.3125 0.5625 C13.47974609 0.61857422 14.64699219 0.67464844 15.84960938 0.73242188 C17.52700195 0.80493164 17.52700195 0.80493164 19.23828125 0.87890625 C20.26993408 0.9260376 21.30158691 0.97316895 22.36450195 1.02172852 C25.11030537 1.13456255 25.11030537 1.13456255 28 0 C29.39439664 -0.06665376 30.79169875 -0.08538199 32.1875 -0.0625 C34.0746875 -0.0315625 34.0746875 -0.0315625 36 0 C33.80919004 2.19080996 32.07495054 2.90085477 29.25 4.125 C22.30141357 7.5441457 18.86460817 12.36691882 16.125 19.5 C15.75375 20.655 15.3825 21.81 15 23 C12.81530399 20.81530399 11.97345111 18.9814068 10.6875 16.1875 C7.85036145 10.39639955 4.25726015 6.69955344 -1 3 C-0.67 2.01 -0.34 1.02 0 0 Z " fill="#0EADF1" transform="translate(333,68)"/>
<path d="M0 0 C1.80605028 0.00119699 3.6121012 0.00164387 5.41815186 0.00138855 C9.14892638 0.00293124 12.87960189 0.01106006 16.61035156 0.0246582 C21.39972105 0.04189432 26.1889852 0.04546437 30.97838211 0.04471302 C34.68252574 0.04498375 38.3866462 0.05044522 42.09078217 0.05771446 C43.85950293 0.06089746 45.6282263 0.06286768 47.39694977 0.06360817 C49.84443246 0.06576168 52.29179971 0.07447682 54.73925781 0.08520508 C55.83451782 0.0845253 55.83451782 0.0845253 56.9519043 0.08383179 C61.93237426 0.11596801 61.93237426 0.11596801 63.046875 1.23046875 C64.89579446 1.46410756 66.75175531 1.6435051 68.609375 1.79296875 C69.62128906 1.87675781 70.63320313 1.96054687 71.67578125 2.046875 C72.84947266 2.13775391 72.84947266 2.13775391 74.046875 2.23046875 C74.046875 2.56046875 74.046875 2.89046875 74.046875 3.23046875 C72.83041039 3.22713783 72.83041039 3.22713783 71.58937073 3.22373962 C62.09705478 3.19895983 52.60474505 3.18208059 43.11240387 3.1709671 C41.44941436 3.16897502 39.78642504 3.16681453 38.12343597 3.16448212 C16.12131813 3.13424633 -5.86009999 3.18683957 -27.84936523 4.05053711 C-28.99418114 4.09039482 -28.99418114 4.09039482 -30.16212463 4.13105774 C-32.14339312 4.20080325 -34.12422521 4.28266944 -36.10498047 4.36572266 C-38.953125 4.23046875 -38.953125 4.23046875 -40.953125 2.23046875 C-27.2553351 0.71932142 -13.77674514 -0.06177515 0 0 Z " fill="#DDE8F0" transform="translate(238.953125,402.76953125)"/>
<path d="M0 0 C0.33 1.32 0.66 2.64 1 4 C2.65 4 4.3 4 6 4 C5.01398596 27.59633601 5.01398596 27.59633601 -4 36 C-4.99 36 -5.98 36 -7 36 C-7 35.01 -7 34.02 -7 33 C-7.66 33 -8.32 33 -9 33 C-9.2475 33.61875 -9.495 34.2375 -9.75 34.875 C-11.22047178 37.37480203 -12.41403076 37.83316022 -15 39 C-14.56429687 38.34257813 -14.12859375 37.68515625 -13.6796875 37.0078125 C-6.52993874 25.58678527 -2.71548645 13.13290424 0 0 Z " fill="#50D0F2" transform="translate(249,61)"/>
<path d="M0 0 C-0.73461914 1.92822266 -0.73461914 1.92822266 -2 4 C-3.88842773 4.77099609 -3.88842773 4.77099609 -6.24609375 5.1484375 C-7.59356689 5.36838379 -7.59356689 5.36838379 -8.96826172 5.59277344 C-25.25796826 7.7808255 -41.54939369 9.64982327 -58 9 C-60.04947765 8.93354703 -62.09895695 8.86714479 -64.1484375 8.80078125 C-82.29410016 8.15673268 -82.29410016 8.15673268 -88 7 C-88 6.67 -88 6.34 -88 6 C-74.47 6 -60.94 6 -47 6 C-46.67 5.34 -46.34 4.68 -46 4 C-40.39 4 -34.78 4 -29 4 C-29 3.34 -29 2.68 -29 2 C-25.29204724 1.66234191 -21.58358419 1.33064486 -17.875 1 C-16.82828125 0.90460938 -15.7815625 0.80921875 -14.703125 0.7109375 C-9.7882167 0.2754393 -4.94027946 -0.13675514 0 0 Z " fill="#4BB3EE" transform="translate(177,326)"/>
<path d="M0 0 C0.99 0 1.98 0 3 0 C3.9648658 2.01772251 4.92158397 4.03934207 5.875 6.0625 C6.67550781 7.75052734 6.67550781 7.75052734 7.4921875 9.47265625 C10.47674415 16.45466314 11.41127873 22.61696265 11.5 30.125 C11.561875 31.44564453 11.561875 31.44564453 11.625 32.79296875 C11.70101216 39.09247622 11.70101216 39.09247622 9.6640625 41.72949219 C5.81586471 45 5.81586471 45 4 45 C3.28673658 39.47220851 2.97597755 34.12976322 3.08203125 28.56616211 C3.230832 20.54529436 2.63052703 13.53750284 0.65625 5.72265625 C0 3 0 3 0 0 Z " fill="#22359D" transform="translate(386,180)"/>
<path d="M0 0 C-2.1689252 3.32462988 -2.58028973 3.90514011 -6.6640625 4.828125 C-8.31536188 4.99404751 -9.96958286 5.13204228 -11.625 5.25 C-12.54925781 5.32516846 -13.47351563 5.40033691 -14.42578125 5.4777832 C-24.93520626 6.19890514 -35.47071 6.1804411 -46 6.1875 C-47.32321259 6.18913147 -47.32321259 6.18913147 -48.67315674 6.1907959 C-77.62647113 6.18676443 -77.62647113 6.18676443 -84 3 C-68.82 3 -53.64 3 -38 3 C-43.94 2.67 -49.88 2.34 -56 2 C-56 1.67 -56 1.34 -56 1 C-49.79276055 0.85597519 -43.58548572 0.71362227 -37.37817383 0.57275391 C-35.27074167 0.52470013 -33.1633195 0.47620599 -31.0559082 0.42724609 C-28.00995424 0.35656092 -24.96396671 0.28751032 -21.91796875 0.21875 C-20.99042282 0.19687622 -20.06287689 0.17500244 -19.10722351 0.15246582 C-12.73719001 0.01077886 -6.37151383 -0.0242283 0 0 Z " fill="#9E94F0" transform="translate(284,266)"/>
<path d="M0 0 C-0.34747745 8.94754427 -0.34747745 8.94754427 -2.9375 13.125 C-5 15 -5 15 -7 15 C-7.33 14.34 -7.66 13.68 -8 13 C-8.7734375 13.2784375 -8.7734375 13.2784375 -9.5625 13.5625 C-12 14 -12 14 -15.3125 13.375 C-20.0062229 12.89767225 -21.87726653 13.8173764 -26 16 C-26.66 16.66 -27.32 17.32 -28 18 C-31.36055646 13.51925805 -31.27429625 10.39449293 -31 5 C-29.741875 4.95875 -28.48375 4.9175 -27.1875 4.875 C-26.47980469 4.85179687 -25.77210938 4.82859375 -25.04296875 4.8046875 C-23 5 -23 5 -20 7 C-14.11096241 7.92984804 -11.48108308 6.97867022 -6.625 3.5 C-5.37589844 2.52546875 -5.37589844 2.52546875 -4.1015625 1.53125 C-2 0 -2 0 0 0 Z " fill="#257BD7" transform="translate(271,40)"/>
<path d="M0 0 C2.56788613 1.28394307 2.59693579 2.25199505 3.625 4.875 C5.27604515 8.39134808 6.59209288 9.66867692 10.25 11 C11.4875 11.33 12.725 11.66 14 12 C14 12.66 14 13.32 14 14 C13.45730469 14.24234375 12.91460937 14.4846875 12.35546875 14.734375 C6.95186859 17.26579129 4.2262153 19.16034351 1.8125 24.75 C1.544375 25.4925 1.27625 26.235 1 27 C-1 24 -1 24 -2.625 21.0625 C-5.58349353 17.24760045 -8.61472975 15.80945617 -13 14 C-10.99969147 11.83349373 -9.88192895 10.95226915 -7.0625 9.8125 C-2.92340576 7.36283198 -1.7567517 4.35054391 0 0 Z " fill="#FDD35D" transform="translate(375,335)"/>
<path d="M0 0 C2.08799031 1.87919128 3.33862119 3.56047646 4.8125 6 C7.24684807 9.3385345 9.22256715 10.45468656 13 12 C13 12.66 13 13.32 13 14 C11.35546875 15.04296875 11.35546875 15.04296875 9.1875 16.1875 C4.72703854 18.82430376 3.53011748 21.12275052 2 26 C1.34 26 0.68 26 0 26 C-0.23074219 25.45730469 -0.46148437 24.91460937 -0.69921875 24.35546875 C-2.76438061 19.82517297 -4.21835336 17.03219982 -9 15 C-11.19130534 14.30420546 -11.19130534 14.30420546 -13 14 C-13 13.34 -13 12.68 -13 12 C-12.31292969 11.72027344 -11.62585938 11.44054687 -10.91796875 11.15234375 C-4.64607029 8.52620379 -4.64607029 8.52620379 -0.875 3.1875 C-0.58625 2.135625 -0.2975 1.08375 0 0 Z " fill="#7086EF" transform="translate(91,103)"/>
<path d="M0 0 C3.97378129 2.00235283 6.53566815 4.30350222 9 8 C9.7566428 12.56895843 10.04593826 17.10609287 7.76171875 21.2421875 C4.83166377 24.7466205 2.65499628 26.74146104 -2.0859375 27.203125 C-6.89115222 27.3015253 -10.19367016 27.26256844 -14 24 C-16.87066233 20.66382486 -18.25472704 18.17439917 -18.375 13.8125 C-18 10 -18 10 -16 7 C-15.96261719 7.68707031 -15.92523438 8.37414062 -15.88671875 9.08203125 C-15.82097656 9.98308594 -15.75523437 10.88414062 -15.6875 11.8125 C-15.62949219 12.70582031 -15.57148438 13.59914062 -15.51171875 14.51953125 C-14.92877555 17.34524829 -14.10016288 18.12505566 -12 20 C-12 20.66 -12 21.32 -12 22 C-10.46069439 22.22511584 -8.91831367 22.42924045 -7.375 22.625 C-6.51648438 22.74101562 -5.65796875 22.85703125 -4.7734375 22.9765625 C-1.49681419 23.00425227 0.95896166 22.16825813 4 21 C4.05383848 18.54137599 4.09359038 16.0839245 4.125 13.625 C4.14175781 12.92632812 4.15851563 12.22765625 4.17578125 11.5078125 C4.19344267 9.67102514 4.10303261 7.83398037 4 6 C1.2656934 3.2656934 -0.76993555 3.04659335 -4.578125 2.90234375 C-5.90070313 2.91974609 -5.90070313 2.91974609 -7.25 2.9375 C-8.58804687 2.95103516 -8.58804687 2.95103516 -9.953125 2.96484375 C-10.62859375 2.97644531 -11.3040625 2.98804688 -12 3 C-9.89399728 -1.21200544 -4.15871805 -0.69311968 0 0 Z " fill="#5BEAE0" transform="translate(313,180)"/>
<path d="M0 0 C0 1.32 0 2.64 0 4 C3.44450737 6.29633824 5.93812283 6.54016485 10 7 C11.22802052 11.09340174 11.06042314 13.44856488 9.1875 17.1875 C7.89301725 19.55682402 6.50137805 21.74793292 5 24 C4.78085937 23.33613281 4.56171875 22.67226563 4.3359375 21.98828125 C2.16212415 15.93518311 0.47080036 12.47185408 -5 9 C-7.64333879 7.82624306 -10.24388485 6.90286531 -13 6 C-13 5.34 -13 4.68 -13 4 C-11.39850114 3.32694982 -9.79368971 2.66177773 -8.1875 2 C-7.29417969 1.62875 -6.40085937 1.2575 -5.48046875 0.875 C-3 0 -3 0 0 0 Z " fill="#7448D4" transform="translate(417,302)"/>
<path d="M0 0 C0.33 0 0.66 0 1 0 C1.315109 5.2518167 0.8689708 8.54814877 -2 13 C-7.00787352 17.63228301 -10.93780731 18.29604904 -17.546875 18.21875 C-20.74323092 17.93372463 -22.64763608 17.19553966 -25 15 C-25 13.68 -25 12.36 -25 11 C-19.77821605 8.33582451 -16.90353148 7.63764658 -11 9 C-10.01 9.33 -9.02 9.66 -8 10 C-7.67 9.01 -7.34 8.02 -7 7 C-6.67 8.32 -6.34 9.64 -6 11 C-1.9957657 7.50912907 -0.37328935 5.35048061 0 0 Z " fill="#1A46B8" transform="translate(270,44)"/>
<path d="M0 0 C0.66 0.33 1.32 0.66 2 1 C-4.91880225 11.03226326 -17.19043813 13.84828362 -28.33569336 16.85668945 C-32.47564237 17.97539806 -36.47971521 19.13987739 -40.4609375 20.7421875 C-44 22 -44 22 -47 21 C-45 19 -45 19 -42.375 18.875 C-41.59125 18.91625 -40.8075 18.9575 -40 19 C-40 18.34 -40 17.68 -40 17 C-39.01 17 -38.02 17 -37 17 C-37.33 15.68 -37.66 14.36 -38 13 C-37.41734375 12.89042969 -36.8346875 12.78085937 -36.234375 12.66796875 C-24.19329674 10.33926965 -13.64354043 7.50177192 -2.921875 1.4765625 C-1.47554688 0.74566406 -1.47554688 0.74566406 0 0 Z " fill="#3C71DC" transform="translate(335,251)"/>
<path d="M0 0 C0.66 0.33 1.32 0.66 2 1 C-1.465 3.475 -1.465 3.475 -5 6 C-4.505 6.99 -4.505 6.99 -4 8 C-12.8699304 12.54645874 -21.81005712 16.91690678 -30.875 21.0625 C-31.74866211 21.46847412 -32.62232422 21.87444824 -33.52246094 22.29272461 C-34.3374707 22.66147705 -35.15248047 23.03022949 -35.9921875 23.41015625 C-36.71776855 23.74152588 -37.44334961 24.07289551 -38.19091797 24.41430664 C-40 25 -40 25 -42 24 C-41.84375 22.171875 -41.84375 22.171875 -41 20 C-38.65625 18.578125 -38.65625 18.578125 -35.5 17.25 C-34.3346875 16.74597656 -33.169375 16.24195313 -31.96875 15.72265625 C-31.01548828 15.31490967 -31.01548828 15.31490967 -30.04296875 14.89892578 C-27.84935149 13.93371321 -25.69034597 12.91115741 -23.53125 11.87109375 C-22.77908203 11.50918945 -22.02691406 11.14728516 -21.25195312 10.77441406 C-19.77533774 10.06171982 -18.30002566 9.34631754 -16.82617188 8.62792969 C-13.22797494 6.91006991 -9.99657121 5.53860042 -6 5 C-6 4.34 -6 3.68 -6 3 C-4.03533587 1.93224776 -2.03144641 0.93446535 0 0 Z " fill="#A74EE5" transform="translate(372,260)"/>
<path d="M0 0 C1.92942788 1.74567284 3.09011813 3.17165359 4.3125 5.5 C6.42187842 8.62500507 8.57420042 9.55355129 12 11 C10 13 10 13 7.625 14.25 C4.44324012 16.37117325 2.95081421 18.74864299 1 22 C0.38125 21.13375 0.38125 21.13375 -0.25 20.25 C-3.43829958 16.15075768 -6.00836074 13.66387975 -11 12 C-10 10 -10 10 -7.125 8.6875 C-3.66792887 6.82068159 -2.69047881 5.4699302 -1 2 C-0.67 1.34 -0.34 0.68 0 0 Z " fill="#2DD0F7" transform="translate(177,74)"/>
<path d="M0 0 C1.05731448 3.17194344 0.970146 3.98970846 0.22265625 7.10546875 C-0.05360596 8.32157837 -0.05360596 8.32157837 -0.33544922 9.56225586 C-0.53412598 10.42858643 -0.73280273 11.29491699 -0.9375 12.1875 C-3.95241082 26.30415206 -4.63961841 41.08114478 0 55 C0.06802967 56.72795352 0.08495645 58.45835365 0.0625 60.1875 C0.05347656 61.08855469 0.04445313 61.98960937 0.03515625 62.91796875 C0.02355469 63.60503906 0.01195313 64.29210937 0 65 C-0.66 65 -1.32 65 -2 65 C-2.485864 63.48129302 -2.96331201 61.95989301 -3.4375 60.4375 C-3.70433594 59.59058594 -3.97117187 58.74367187 -4.24609375 57.87109375 C-8.3628924 42.19312998 -9.44140378 16.88280756 -2 2 C-1.34 2 -0.68 2 0 2 C0 1.34 0 0.68 0 0 Z " fill="#DFB2F0" transform="translate(120,180)"/>
<path d="M0 0 C2.10883522 1.70715232 2.92871224 2.58764921 3.3984375 5.3046875 C3.31695332 14.24078624 3.31695332 14.24078624 0 18 C-4.07498342 21.58986635 -7.42463046 22.75244795 -12.74609375 22.52734375 C-16.72152839 21.59721606 -19.45465017 19.11350827 -22 16 C-22.92867074 13.21398777 -23.16342217 11.38933911 -23.1875 8.5 C-23.20167969 7.7265625 -23.21585938 6.953125 -23.23046875 6.15625 C-23 4 -23 4 -21 1 C-21.01160156 1.75925781 -21.02320313 2.51851562 -21.03515625 3.30078125 C-21.04417969 4.29464844 -21.05320313 5.28851563 -21.0625 6.3125 C-21.07410156 7.29863281 -21.08570313 8.28476563 -21.09765625 9.30078125 C-21.12329862 12.09963849 -21.12329862 12.09963849 -20 15 C-19.34 15 -18.68 15 -18 15 C-18 15.66 -18 16.32 -18 17 C-10.73375419 17.74178159 -10.73375419 17.74178159 -4.4375 14.625 C-1.25579467 11.19854811 -0.8457089 9.42361346 -0.4375 4.875 C-0.35371094 3.96492187 -0.26992187 3.05484375 -0.18359375 2.1171875 C-0.09271484 1.06917969 -0.09271484 1.06917969 0 0 Z " fill="#5CF5E8" transform="translate(208,185)"/>
<path d="M0 0 C2.1875 0.3125 2.1875 0.3125 4 1 C2.8553125 2.299375 2.8553125 2.299375 1.6875 3.625 C-2.23323583 9.04516738 -2.8711538 15.54727106 -4 22 C-4.25559692 23.16897827 -4.25559692 23.16897827 -4.51635742 24.36157227 C-5.01993798 27.10876819 -5.20730444 29.72964202 -5.31640625 32.51953125 C-5.35830078 33.54111328 -5.40019531 34.56269531 -5.44335938 35.61523438 C-5.50233398 37.19788086 -5.50233398 37.19788086 -5.5625 38.8125 C-5.62727539 40.42415039 -5.62727539 40.42415039 -5.69335938 42.06835938 C-5.79910983 44.71212082 -5.90120233 47.3559711 -6 50 C-9.14034438 47.15550801 -9.53737647 45.23195385 -10 41 C-10.1134375 40.15824219 -10.226875 39.31648438 -10.34375 38.44921875 C-10.81333694 30.14926959 -8.89974556 22.83375739 -6.6875 14.875 C-6.37941406 13.75955811 -6.07132812 12.64411621 -5.75390625 11.49487305 C-3.08167361 2.3252134 -3.08167361 2.3252134 0 0 Z " fill="#4D50D9" transform="translate(113,180)"/>
<path d="M0 0 C3.22244306 2.34359496 3.81480675 5.19357155 4.765625 8.8671875 C5.06656507 11.60574215 4.87438517 13.36885925 4 16 C1.78515625 18.67578125 1.78515625 18.67578125 -0.9375 21.3125 C-1.83339844 22.19550781 -2.72929687 23.07851562 -3.65234375 23.98828125 C-6 26 -6 26 -8 26 C-8.08090971 24.37581255 -8.13914995 22.75048255 -8.1875 21.125 C-8.22230469 20.22007812 -8.25710938 19.31515625 -8.29296875 18.3828125 C-8.19628906 17.59648437 -8.09960938 16.81015625 -8 16 C-5 14 -5 14 -1 14 C-1.09539062 13.15695313 -1.19078125 12.31390625 -1.2890625 11.4453125 C-1.39992188 10.34960938 -1.51078125 9.25390625 -1.625 8.125 C-1.74101562 7.03445312 -1.85703125 5.94390625 -1.9765625 4.8203125 C-1.98429687 3.88960937 -1.99203125 2.95890625 -2 2 C-1.34 1.34 -0.68 0.68 0 0 Z " fill="#3145BB" transform="translate(405,193)"/>
<path d="M0 0 C0 0.66 0 1.32 0 2 C-12.48688879 3.27053985 -24.98645497 3.15226638 -37.52319336 3.13037109 C-41.18933213 3.12499731 -44.85534925 3.13034925 -48.52148438 3.13671875 C-50.88281277 3.13605812 -53.24414108 3.13477728 -55.60546875 3.1328125 C-57.22620552 3.13584885 -57.22620552 3.13584885 -58.87968445 3.13894653 C-65.63811995 3.1183653 -72.28097346 2.72997268 -79 2 C-79 1.67 -79 1.34 -79 1 C-71.35749116 0.86779836 -63.71495462 0.7373066 -56.07238197 0.60884857 C-52.52154768 0.54911482 -48.97072431 0.48884703 -45.41992188 0.42724609 C-30.27985407 0.16495559 -15.1429825 -0.09420207 0 0 Z " fill="#CEDEE9" transform="translate(295,409)"/>
<path d="M0 0 C6.13929569 0.36835774 8.81670353 1.71710123 13 6 C13.875 8.3125 13.875 8.3125 14 10 C11.9375 12.125 11.9375 12.125 9 14 C5.42343707 13.51504231 3.01159395 13.14354099 0.5625 10.375 C-0.26864866 6.86570564 -0.12011061 3.60331819 0 0 Z " fill="#26A9EE" transform="translate(256,30)"/>
<path d="M0 0 C10.17771146 2.85398734 18.32817694 10.98253832 26 18 C25.67 18.66 25.34 19.32 25 20 C24.34 19.67 23.68 19.34 23 19 C22.67 19.99 22.34 20.98 22 22 C21.31035156 21.34773438 20.62070312 20.69546875 19.91015625 20.0234375 C15.42471365 15.8517913 11.19134264 11.95022337 5.9375 8.75 C2.74772869 6.75639293 2.09401603 6.20307462 0.4375 2.625 C0.293125 1.75875 0.14875 0.8925 0 0 Z " fill="#1F76E0" transform="translate(338,123)"/>
<path d="M0 0 C5.22866463 -0.04984062 10.45718765 -0.08592606 15.68603516 -0.10986328 C17.46079928 -0.11985378 19.23554723 -0.13345081 21.01025391 -0.15087891 C38.86927375 -0.32173053 38.86927375 -0.32173053 46.08129883 1.52416992 C48.16373551 2.04060574 50.17629897 2.26129474 52.3125 2.4375 C58.32459681 3.02140868 64.14543664 4.56124332 70 6 C66.90279155 6.87840996 65.09354597 6.99435406 62 6 C61.67 6.66 61.34 7.32 61 8 C59.94941406 7.73445313 58.89882813 7.46890625 57.81640625 7.1953125 C56.39845382 6.83847679 54.98048414 6.48170966 53.5625 6.125 C52.87478516 5.95097656 52.18707031 5.77695313 51.47851562 5.59765625 C50.05436557 5.23996275 48.62893386 4.88734111 47.20239258 4.53930664 C45.73828035 4.18078498 44.27706261 3.81022185 42.8190918 3.42749023 C37.05208822 1.99577473 31.61451083 1.72814554 25.6875 1.8125 C24.36782227 1.8134668 24.36782227 1.8134668 23.02148438 1.81445312 C18.42383356 1.79655572 18.42383356 1.79655572 13.91040039 2.53173828 C11.04846724 3.23323193 8.62496855 2.59374419 5.75 2.0625 C4.67234375 1.86785156 3.5946875 1.67320313 2.484375 1.47265625 C1.66453125 1.31667969 0.8446875 1.16070312 0 1 C0 0.67 0 0.34 0 0 Z " fill="#8FDBF7" transform="translate(347,119)"/>
<path d="M0 0 C0.66 0.33 1.32 0.66 2 1 C1.360625 1.598125 0.72125 2.19625 0.0625 2.8125 C-2.20310389 4.90810337 -2.20310389 4.90810337 -3 8 C-4.77832031 9.13500977 -4.77832031 9.13500977 -7.078125 10.19140625 C-7.90957031 10.57876953 -8.74101562 10.96613281 -9.59765625 11.36523438 C-10.47292969 11.76033203 -11.34820312 12.15542969 -12.25 12.5625 C-13.10980469 12.96146484 -13.96960938 13.36042969 -14.85546875 13.77148438 C-26.18537406 19 -26.18537406 19 -30 19 C-29.875 17.125 -29.875 17.125 -29 15 C-26.625 14.0625 -26.625 14.0625 -23 13 C-20.10878305 11.71727699 -17.25018443 10.37508718 -14.390625 9.0234375 C-12 8 -12 8 -10 8 C-10 7.34 -10 6.68 -10 6 C-9.44570313 5.73445312 -8.89140625 5.46890625 -8.3203125 5.1953125 C-7.59585937 4.84210938 -6.87140625 4.48890625 -6.125 4.125 C-5.40570313 3.77695313 -4.68640625 3.42890625 -3.9453125 3.0703125 C-1.84864981 2.03442457 -1.84864981 2.03442457 0 0 Z " fill="#2456C7" transform="translate(344,249)"/>
<path d="M0 0 C-0.43570313 0.42410156 -0.87140625 0.84820312 -1.3203125 1.28515625 C-4.42458147 4.34239085 -7.47459129 7.43509994 -10.375 10.6875 C-10.85710937 11.22761719 -11.33921875 11.76773437 -11.8359375 12.32421875 C-13.12629843 13.94682469 -13.12629843 13.94682469 -13.41015625 16.00390625 C-14.23326382 18.78938949 -15.71364816 19.60953205 -18.0625 21.25 C-18.79597656 21.77078125 -19.52945313 22.2915625 -20.28515625 22.828125 C-20.85105469 23.21484375 -21.41695312 23.6015625 -22 24 C-20.25192871 18.53262809 -18.34205919 13.24175152 -16 8 C-15.34 9.32 -14.68 10.64 -14 12 C-13.608125 11.319375 -13.21625 10.63875 -12.8125 9.9375 C-5.63734291 -1.69120287 -5.63734291 -1.69120287 0 0 Z " fill="#7F3DE2" transform="translate(217,378)"/>
<path d="M0 0 C0.99 0 1.98 0 3 0 C3 0.66 3 1.32 3 2 C1.35546875 3.04296875 1.35546875 3.04296875 -0.8125 4.1875 C-5.27296146 6.82430376 -6.46988252 9.12275052 -8 14 C-8.66 14 -9.32 14 -10 14 C-10.64834654 12.730447 -11.29357815 11.45930294 -11.9375 10.1875 C-12.29714844 9.47980469 -12.65679687 8.77210937 -13.02734375 8.04296875 C-14 6 -14 6 -15 3 C-14.67 2.34 -14.34 1.68 -14 1 C-13.07316406 1.01160156 -12.14632812 1.02320312 -11.19140625 1.03515625 C-9.39509766 1.04869141 -9.39509766 1.04869141 -7.5625 1.0625 C-5.77005859 1.07990234 -5.77005859 1.07990234 -3.94140625 1.09765625 C-1.11126659 1.33901792 -1.11126659 1.33901792 0 0 Z " fill="#6F65DF" transform="translate(101,115)"/>
<path d="M0 0 C-0.34747745 8.94754427 -0.34747745 8.94754427 -2.9375 13.125 C-5 15 -5 15 -7 15 C-9.00773956 12.99226044 -9.99392854 11.63126383 -11 9 C-10.71909105 6.2881482 -10.33950486 5.28354252 -8.22265625 3.515625 C-7.50980469 3.09796875 -6.79695313 2.6803125 -6.0625 2.25 C-5.35222656 1.82203125 -4.64195312 1.3940625 -3.91015625 0.953125 C-2 0 -2 0 0 0 Z " fill="#1766D1" transform="translate(271,40)"/>
<path d="M0 0 C-0.71484375 1.921875 -0.71484375 1.921875 -2 4 C-7.94272039 6.3815817 -14.70090829 6.20319651 -21 6 C-20.34 5.34 -19.68 4.68 -19 4 C-22.3 3.67 -25.6 3.34 -29 3 C-29 2.67 -29 2.34 -29 2 C-25.29204724 1.66234191 -21.58358419 1.33064486 -17.875 1 C-16.30492187 0.85691406 -16.30492187 0.85691406 -14.703125 0.7109375 C-9.7882167 0.2754393 -4.94027946 -0.13675514 0 0 Z " fill="#589EEC" transform="translate(177,326)"/>
<path d="M0 0 C2 2 2 2 3 5 C6.00847418 6.22520264 6.00847418 6.22520264 9 7 C6.11068728 10.6116409 4.72168143 11.89690265 0.0625 12.5625 C-4.256525 12.30024421 -6.70257545 10.72037526 -10 8 C-10 7.67 -10 7.34 -10 7 C-7.69 7 -5.38 7 -3 7 C-2.690625 6.030625 -2.38125 5.06125 -2.0625 4.0625 C-1 1 -1 1 0 0 Z " fill="#58BFF5" transform="translate(255,36)"/>
<path d="M0 0 C1.55373847 3.10747694 0.58528628 5.74226527 0.0625 9.125 C-0.22947266 11.04699219 -0.22947266 11.04699219 -0.52734375 13.0078125 C-0.68332031 13.99523437 -0.83929687 14.98265625 -1 16 C2.35760979 14.59339583 2.35760979 14.59339583 4.125 11.4375 C4.558125 10.2309375 4.558125 10.2309375 5 9 C5.66 8.67 6.32 8.34 7 8 C7.33 12.62 7.66 17.24 8 22 C7.67 22 7.34 22 7 22 C7 20.35 7 18.7 7 17 C4.36 18.98 1.72 20.96 -1 23 C-2.49861153 20.00277695 -2.47594496 17.07781121 -2.75 13.75 C-2.86859375 12.44546875 -2.9871875 11.1409375 -3.109375 9.796875 C-2.99138985 5.70110491 -2.09341163 3.47463167 0 0 Z " fill="#99F2EB" transform="translate(30,271)"/>
<path d="M0 0 C1.17949219 0.01804687 2.35898437 0.03609375 3.57421875 0.0546875 C4.92966797 0.08949219 4.92966797 0.08949219 6.3125 0.125 C5.9825 1.115 5.6525 2.105 5.3125 3.125 C4.3225 3.125 3.3325 3.125 2.3125 3.125 C2.3125 3.785 2.3125 4.445 2.3125 5.125 C-9.20914009 7.42112756 -9.20914009 7.42112756 -14.6875 7.125 C-14.6875 6.465 -14.6875 5.805 -14.6875 5.125 C-13.05685236 4.06728261 -11.38469127 3.07226954 -9.6875 2.125 C-6.05554504 -0.29630331 -4.30400652 -0.08522785 0 0 Z " fill="#567BE2" transform="translate(292.6875,264.875)"/>
<path d="M0 0 C0.66 0.33 1.32 0.66 2 1 C-2.73274488 7.86248008 -10.58427542 12.01026863 -18.625 13.8125 C-19.800625 13.9053125 -19.800625 13.9053125 -21 14 C-21 13.34 -21 12.68 -21 12 C-21.66 11.34 -22.32 10.68 -23 10 C-22.09378906 9.69707031 -21.18757813 9.39414062 -20.25390625 9.08203125 C-13.7058141 6.83004189 -7.56883843 4.52254142 -1.671875 0.8203125 C-1.12015625 0.54960937 -0.5684375 0.27890625 0 0 Z " fill="#2E6DD7" transform="translate(335,251)"/>
<path d="M0 0 C0 0.33 0 0.66 0 1 C-4.18613079 1.67545765 -8.37409696 2.33879077 -12.5625 3 C-13.74392578 3.19078125 -14.92535156 3.3815625 -16.14257812 3.578125 C-21.81843825 4.468456 -27.25182969 5.27010492 -33 5 C-32.67 4.01 -32.34 3.02 -32 2 C-28.16880992 1.46253413 -24.3348593 0.94807138 -20.5 0.4375 C-19.42234375 0.28603516 -18.3446875 0.13457031 -17.234375 -0.02148438 C-11.20725784 -0.81162473 -5.98866249 -1.09743694 0 0 Z " fill="#2B6FDE" transform="translate(180,331)"/>
<path d="M0 0 C0.66 0 1.32 0 2 0 C2.76183594 1.59328125 2.76183594 1.59328125 3.5390625 3.21875 C8.43289548 13.38500725 8.43289548 13.38500725 14.87109375 22.6171875 C16 24 16 24 17 26 C15.66666667 25.33333333 14.33333333 24.66666667 13 24 C12.3709375 23.78988281 11.741875 23.57976562 11.09375 23.36328125 C7.96772702 21.32786703 6.79304047 18.33732193 5.25 15.0625 C4.93417969 14.42892578 4.61835937 13.79535156 4.29296875 13.14257812 C2.88706823 10.24861408 2 8.25598209 2 5 C-0.31 5 -2.62 5 -5 5 C-5 4.67 -5 4.34 -5 4 C-3.02 4 -1.04 4 1 4 C0.67 2.68 0.34 1.36 0 0 Z " fill="#BB84E5" transform="translate(119,247)"/>
<path d="M0 0 C2.10883522 1.70715232 2.92871224 2.58764921 3.3984375 5.3046875 C3.31695332 14.24078624 3.31695332 14.24078624 0 18 C-4.40838511 21.88357735 -7.60050472 22.40129681 -13.2421875 22.140625 C-13.82226562 22.09421875 -14.40234375 22.0478125 -15 22 C-14.67 21.34 -14.34 20.68 -14 20 C-11.36 20 -8.72 20 -6 20 C-6 19.34 -6 18.68 -6 18 C-5.071875 17.87625 -5.071875 17.87625 -4.125 17.75 C-1.90315818 17.19916526 -1.90315818 17.19916526 -0.875 15.375 C0.27968295 12.24086056 0.19161472 9.58073613 0.125 6.25 C0.09792969 4.49429688 0.09792969 4.49429688 0.0703125 2.703125 C0.04710937 1.81109375 0.02390625 0.9190625 0 0 Z " fill="#45EDE6" transform="translate(208,185)"/>
<path d="M0 0 C1.11517502 5.98729887 2.19500136 11.96251023 3 18 C2.34 17.34 1.68 16.68 1 16 C0.01 18.475 0.01 18.475 -1 21 C-1.33 21 -1.66 21 -2 21 C-2.96205088 14.62641289 -3.10655578 8.44070471 -3 2 C-4.98 2 -6.96 2 -9 2 C-9 1.67 -9 1.34 -9 1 C-1.125 0 -1.125 0 0 0 Z " fill="#1387E4" transform="translate(261,61)"/>
<path d="M0 0 C3.44653735 1.72326868 3.94777142 5.43600875 5.1796875 8.921875 C6.35691702 13.33928864 6.35388415 17.46831685 6 22 C5.34 22 4.68 22 4 22 C1.42388772 14.67671225 0.38577055 7.74201581 0 0 Z " fill="#CB93E4" transform="translate(114,223)"/>
<path d="M0 0 C0.66 0.33 1.32 0.66 2 1 C-11.17647059 14.45098039 -11.17647059 14.45098039 -18 19 C-17.55327658 14.30113145 -15.90393591 12.52784833 -12.375 9.5 C-11.4778125 8.72785156 -10.580625 7.95570313 -9.65625 7.16015625 C-6.5240712 4.6129579 -3.34724457 2.25575178 0 0 Z " fill="#A2E6EF" transform="translate(74,223)"/>
<path d="M0 0 C0.33 0 0.66 0 1 0 C1.16751968 3.12495489 1.33387058 6.24997092 1.5 9.375 C1.54769531 10.26445312 1.59539062 11.15390625 1.64453125 12.0703125 C1.71220703 13.34648437 1.71220703 13.34648437 1.78125 14.6484375 C1.82314453 15.43395996 1.86503906 16.21948242 1.90820312 17.02880859 C1.96979795 18.35145924 2 19.67591592 2 21 C1.01 21.33 0.02 21.66 -1 22 C-3.2397148 19.7602852 -2.18531833 14.57102512 -2.1875 11.5625 C-2.19974609 10.67755859 -2.21199219 9.79261719 -2.22460938 8.88085938 C-2.22654297 8.03458984 -2.22847656 7.18832031 -2.23046875 6.31640625 C-2.23457764 5.53724854 -2.23868652 4.75809082 -2.24291992 3.95532227 C-2 2 -2 2 0 0 Z " fill="#874BE5" transform="translate(97,206)"/>
<path d="M0 0 C2 3 2 3 3 7 C-1.29 7 -5.58 7 -10 7 C-10.33 6.34 -10.66 5.68 -11 5 C-10.67 4.01 -10.34 3.02 -10 2 C-6.7 2 -3.4 2 0 2 C0 1.34 0 0.68 0 0 Z " fill="#0E8AE1" transform="translate(263,97)"/>
<path d="M0 0 C0.66 0 1.32 0 2 0 C2 0.99 2 1.98 2 3 C2.66 3 3.32 3 4 3 C2.92598892 5.91517292 2.22189824 7.77810176 0 10 C-2.1640625 10.1953125 -2.1640625 10.1953125 -4.625 10.125 C-5.44226563 10.10695313 -6.25953125 10.08890625 -7.1015625 10.0703125 C-7.72804687 10.04710938 -8.35453125 10.02390625 -9 10 C-8.2575 9.278125 -7.515 8.55625 -6.75 7.8125 C-3.98732731 5.09288953 -3.98732731 5.09288953 -1.8125 2.1875 C-1.214375 1.465625 -0.61625 0.74375 0 0 Z " fill="#1FC4ED" transform="translate(240,94)"/>
<path d="M0 0 C0.33 0 0.66 0 1 0 C1.07347656 1.485 1.07347656 1.485 1.1484375 3 C1.52403107 9.85523329 1.97846489 16.39631865 4 23 C3.34 23 2.68 23 2 23 C2.33 24.65 2.66 26.3 3 28 C0.45844955 26.12146271 0.01122139 25.05900521 -0.58984375 21.8984375 C-1.0212765 17.79777191 -1.14789774 13.80527709 -1.125 9.6875 C-1.12886719 8.97271484 -1.13273437 8.25792969 -1.13671875 7.52148438 C-1.12678867 2.25357734 -1.12678867 2.25357734 0 0 Z " fill="#2FDDF3" transform="translate(27,280)"/>
<path d="M0 0 C7.50704261 3.38300204 11.44846779 10.60094292 14.94140625 17.77734375 C16.65078804 22.9811813 16.03375528 27.69965474 15 33 C14.67 33 14.34 33 14 33 C13.91363281 32.10539062 13.82726562 31.21078125 13.73828125 30.2890625 C12.39472037 18.72704318 9.35429076 10.97245737 1.35546875 2.49609375 C0 1 0 1 0 0 Z " fill="#5090EE" transform="translate(456,146)"/>
<path d="M0 0 C5.56890517 0.47986031 10.67067568 1.29915181 16 3 C15.67 4.32 15.34 5.64 15 7 C13.24871182 6.71617054 11.49899997 6.42260471 9.75 6.125 C8.28820312 5.88136719 8.28820312 5.88136719 6.796875 5.6328125 C4.22735883 5.05144152 2.27928944 4.29159735 0 3 C0 2.01 0 1.02 0 0 Z " fill="#39B4F3" transform="translate(296,108)"/>
<path d="M0 0 C0 0.66 0 1.32 0 2 C-5.37330889 5.39366878 -9.86946489 5.32712342 -16 5 C-16 2 -16 2 -15 1 C-9.9301448 0.06880211 -5.12881696 -0.08997924 0 0 Z " fill="#1533A2" transform="translate(266,57)"/>
<path d="M0 0 C3.3 0 6.6 0 10 0 C10.66 2.31 11.32 4.62 12 7 C11.31292969 6.91621094 10.62585938 6.83242188 9.91796875 6.74609375 C9.01691406 6.64425781 8.11585938 6.54242188 7.1875 6.4375 C6.29417969 6.33308594 5.40085938 6.22867188 4.48046875 6.12109375 C1.86624428 5.84341291 1.86624428 5.84341291 -1 7 C-0.67 4.69 -0.34 2.38 0 0 Z " fill="#2C95EC" transform="translate(250,47)"/>
<path d="M0 0 C-1.1446875 1.3921875 -1.1446875 1.3921875 -2.3125 2.8125 C-5.22406048 6.81487047 -6.20826794 10.85061207 -7.2265625 15.64453125 C-8 18 -8 18 -11 20 C-10.35992743 13.11921989 -8.47479101 6.44379546 -6 0 C-3.50907189 -1.24546405 -2.58919267 -0.7767578 0 0 Z " fill="#4C6BE2" transform="translate(117,181)"/>
<path d="M0 0 C2 2 2 2 2.33203125 4.66796875 C1.93102247 8.69220985 0.53227567 11.78255703 -1.3125 15.3125 C-1.62123047 15.94478516 -1.92996094 16.57707031 -2.24804688 17.22851562 C-4.61129451 21.8704315 -4.61129451 21.8704315 -8 23 C-7.60167969 22.05060547 -7.60167969 22.05060547 -7.1953125 21.08203125 C-5.61080495 16.99648727 -4.2476636 12.84818129 -2.875 8.6875 C-2.59785156 7.85154297 -2.32070312 7.01558594 -2.03515625 6.15429688 C-1.35540305 4.1033174 -0.67751499 2.05171993 0 0 Z " fill="#A0CEEE" transform="translate(247,70)"/>
<path d="M0 0 C0 0.66 0 1.32 0 2 C-0.78246094 2.13277344 -1.56492188 2.26554687 -2.37109375 2.40234375 C-3.38300781 2.57894531 -4.39492187 2.75554687 -5.4375 2.9375 C-6.44683594 3.11152344 -7.45617187 3.28554688 -8.49609375 3.46484375 C-10.9287438 3.74751097 -10.9287438 3.74751097 -12 5 C-17.96351721 6.07822521 -23.96130397 6.09585232 -30 6 C-26.63718658 4.04107956 -23.5884159 3.50936325 -19.75 3 C-15.93126738 2.46058261 -12.22306557 1.88392235 -8.5 0.875 C-5.47275819 0.11818955 -3.09120555 -0.19320035 0 0 Z " fill="#4D72DD" transform="translate(207,321)"/>
<path d="M0 0 C-0.54161908 3.79133356 -1.99283725 5.66109564 -5 8 C-7.75 8.25 -7.75 8.25 -10 8 C-9.67372714 4.98197607 -9.38918764 3.40308719 -7.25 1.1875 C-4.62847443 -0.19608294 -2.92325122 -0.24360427 0 0 Z " fill="#9FF6EB" transform="translate(200,182)"/>
<path d="M0 0 C1.05638672 0.09990234 2.11277344 0.19980469 3.20117188 0.30273438 C5.78084705 0.54786188 8.3594143 0.80127018 10.9375 1.0625 C10.9375 1.3925 10.9375 1.7225 10.9375 2.0625 C0.0475 2.0625 -10.8425 2.0625 -22.0625 2.0625 C-21.7325 1.4025 -21.4025 0.7425 -21.0625 0.0625 C-13.90021214 -1.22303885 -7.2038656 -0.73174912 0 0 Z " fill="#E7EFF5" transform="translate(216.0625,409.9375)"/>
<path d="M0 0 C4.10410468 -0.05888242 8.20809827 -0.09388921 12.3125 -0.125 C14.03436523 -0.15013672 14.03436523 -0.15013672 15.79101562 -0.17578125 C23.09209743 -0.21714715 29.87357302 0.3966669 37 2 C28.64481711 4.39194103 19.38863668 2.80153831 10.875 2 C9.823125 1.90460938 8.77125 1.80921875 7.6875 1.7109375 C5.12460652 1.47794718 2.56215969 1.24090324 0 1 C0 0.67 0 0.34 0 0 Z " fill="#66CAF8" transform="translate(262,109)"/>
<path d="M0 0 C0.3125 3.25 0.3125 3.25 0 7 C-2.4375 9.4375 -2.4375 9.4375 -5 11 C-5.33 11 -5.66 11 -6 11 C-6.34886026 5.67988107 -6.34886026 5.67988107 -6 3 C-3.95950963 0.82347693 -2.99435075 0 0 0 Z " fill="#222C84" transform="translate(396,214)"/>
<path d="M0 0 C-0.33 1.65 -0.66 3.3 -1 5 C-9.03571429 7.27678571 -9.03571429 7.27678571 -13 6 C-13 5.34 -13 4.68 -13 4 C-11.39850114 3.32694982 -9.79368971 2.66177773 -8.1875 2 C-7.29417969 1.62875 -6.40085937 1.2575 -5.48046875 0.875 C-3 0 -3 0 0 0 Z " fill="#8259E0" transform="translate(417,302)"/>
<path d="M0 0 C2.20826378 -0.02722517 4.41662638 -0.04649729 6.625 -0.0625 C7.85476563 -0.07410156 9.08453125 -0.08570312 10.3515625 -0.09765625 C13.67723791 -0.00863924 16.74047588 0.36313913 20 1 C20 1.33 20 1.66 20 2 C18.35 2.33 16.7 2.66 15 3 C15 3.33 15 3.66 15 4 C4.44191344 3.22095672 4.44191344 3.22095672 0 1 C0 0.67 0 0.34 0 0 Z " fill="#1983E2" transform="translate(361,120)"/>
<path d="M0 0 C1.875 0.25 1.875 0.25 4 1 C5.125 2.9375 5.125 2.9375 6 5 C6.66 5.66 7.32 6.32 8 7 C6.35 8.32 4.7 9.64 3 11 C0.29417212 7.16674383 -0.32613618 4.67461851 0 0 Z " fill="#2366CB" transform="translate(240,47)"/>
<path d="M0 0 C2.97 0 5.94 0 9 0 C8.44271087 3.34373475 7.64826111 6.03312999 6 9 C3.75972706 6.11964908 1.83827868 3.15133488 0 0 Z " fill="#19BEF3" transform="translate(172,87)"/>
<path d="M0 0 C1.28429711 2.56859422 0.68569631 3.25721476 0 6 C-0.06743348 8.08234592 -0.08514472 10.16668557 -0.0625 12.25 C-0.04896484 13.86648438 -0.04896484 13.86648438 -0.03515625 15.515625 C-0.02355469 16.33546875 -0.01195312 17.1553125 0 18 C1.32 18.33 2.64 18.66 4 19 C2.35 20.32 0.7 21.64 -1 23 C-2.49861153 20.00277695 -2.47594496 17.07781121 -2.75 13.75 C-2.86859375 12.44546875 -2.9871875 11.1409375 -3.109375 9.796875 C-2.99138985 5.70110491 -2.09341163 3.47463167 0 0 Z " fill="#80EDED" transform="translate(30,271)"/>
<path d="M0 0 C2.22189824 2.22189824 2.92598892 4.08482708 4 7 C2.27181875 8.72818125 -0.0807165 8.45151518 -2.4375 8.6875 C-3.42621094 8.79449219 -4.41492188 8.90148438 -5.43359375 9.01171875 C-8 9 -8 9 -10 7 C-7.69 7 -5.38 7 -3 7 C-2.690625 6.030625 -2.38125 5.06125 -2.0625 4.0625 C-1 1 -1 1 0 0 Z " fill="#7FD4F9" transform="translate(255,36)"/>
<path d="M0 0 C-0.33 0.99 -0.66 1.98 -1 3 C-5.07467725 4.48882438 -8.66541415 5.26270217 -13 5 C-13.33 4.34 -13.66 3.68 -14 3 C-4.58997722 -0.44419134 -4.58997722 -0.44419134 0 0 Z " fill="#5B46D0" transform="translate(255,310)"/>
<path d="M0 0 C0.33 1.32 0.66 2.64 1 4 C2.65 4 4.3 4 6 4 C5.85820962 6.22942748 5.71140302 8.45853628 5.5625 10.6875 C5.48128906 11.92886719 5.40007812 13.17023438 5.31640625 14.44921875 C5.05508683 17.38180337 4.65201621 20.13441617 4 23 C3.67 23 3.34 23 3 23 C3.33 17.72 3.66 12.44 4 7 C2.68 7 1.36 7 0 7 C0 4.69 0 2.38 0 0 Z " fill="#21CAF0" transform="translate(249,61)"/>
<path d="M0 0 C-0.7109375 1.953125 -0.7109375 1.953125 -2 4 C-4.1640625 4.609375 -4.1640625 4.609375 -6.625 4.75 C-7.44226563 4.80671875 -8.25953125 4.8634375 -9.1015625 4.921875 C-9.72804687 4.94765625 -10.35453125 4.9734375 -11 5 C-10.67 3.68 -10.34 2.36 -10 1 C-6.61981469 -0.04005702 -3.5219721 -0.08004482 0 0 Z " fill="#488BEB" transform="translate(177,326)"/>
<path d="M0 0 C5.28 0 10.56 0 16 0 C13.37886292 2.62113708 11.17772443 4.19642667 8 6 C7.67 4.35 7.34 2.7 7 1 C4.69 1 2.38 1 0 1 C0 0.67 0 0.34 0 0 Z " fill="#925BE4" transform="translate(420,308)"/>
<path d="M0 0 C2.14336161 3.4766338 2.21277626 6.21229195 2.125 10.25 C2.10695313 11.32765625 2.08890625 12.4053125 2.0703125 13.515625 C2.04710937 14.33546875 2.02390625 15.1553125 2 16 C1.34 16 0.68 16 0 16 C-0.33 16.99 -0.66 17.98 -1 19 C-2.67666168 15.64667665 -1.53482999 11.98935125 -1.0625 8.375 C-0.96259766 7.57320312 -0.86269531 6.77140625 -0.75976562 5.9453125 C-0.5119582 3.96285309 -0.25668193 1.98132991 0 0 Z " fill="#4160E6" transform="translate(471,169)"/>
<path d="M0 0 C0.33 0 0.66 0 1 0 C1.06058594 1.28777344 1.12117188 2.57554687 1.18359375 3.90234375 C1.26798247 5.58074159 1.3526313 7.25912636 1.4375 8.9375 C1.47681641 9.78763672 1.51613281 10.63777344 1.55664062 11.51367188 C1.59853516 12.32255859 1.64042969 13.13144531 1.68359375 13.96484375 C1.72025146 14.7137085 1.75690918 15.46257324 1.79467773 16.23413086 C1.81771063 18.02461326 1.81771063 18.02461326 3 19 C3.14115161 21.67058851 3.04247107 24.32432238 3 27 C0.15605834 23.81163634 -0.36361896 21.81713746 -0.29296875 17.578125 C-0.28330078 16.55332031 -0.27363281 15.52851563 -0.26367188 14.47265625 C-0.23853516 13.40917969 -0.21339844 12.34570312 -0.1875 11.25 C-0.17396484 10.17105469 -0.16042969 9.09210938 -0.14648438 7.98046875 C-0.11116584 5.3198058 -0.06184199 2.66015704 0 0 Z " fill="#D69FEC" transform="translate(114,200)"/>
<path d="M0 0 C1.17781058 3.68065805 1 7.1644081 1 11 C1.33 11.99 1.66 12.98 2 14 C2.66 14 3.32 14 4 14 C4 14.66 4 15.32 4 16 C4.99 16.33 5.98 16.66 7 17 C7 17.99 7 18.98 7 20 C4.12206249 18.70989008 2.03816083 17.42638194 0 15 C-0.93742541 12.18772378 -1.13470844 10.41253156 -1.125 7.5 C-1.12757813 6.7265625 -1.13015625 5.953125 -1.1328125 5.15625 C-1 3 -1 3 0 0 Z " fill="#56EBE3" transform="translate(186,186)"/>
<path d="M0 0 C1.66666667 1.66666667 3.33333333 3.33333333 5 5 C2.36 7.31 -0.28 9.62 -3 12 C-4 10 -4 10 -3.22265625 7.6171875 C-2.83980469 6.71226562 -2.45695313 5.80734375 -2.0625 4.875 C-1.68222656 3.96492188 -1.30195313 3.05484375 -0.91015625 2.1171875 C-0.60980469 1.41851562 -0.30945313 0.71984375 0 0 Z " fill="#A56CED" transform="translate(199,390)"/>
<path d="M0 0 C-2.05233685 2.2477975 -3.00667261 3.0022242 -6 4 C-8.33299825 4.03954234 -10.66708189 4.04401732 -13 4 C-12.67 3.01 -12.34 2.02 -12 1 C-7.9472484 0.01751476 -4.16138263 -0.08159574 0 0 Z " fill="#2378E1" transform="translate(160,332)"/>
<path d="M0 0 C-0.33 1.32 -0.66 2.64 -1 4 C-3.64 4.66 -6.28 5.32 -9 6 C-8.8125 3.625 -8.8125 3.625 -8 1 C-4.72494404 -0.89608503 -3.64512471 -1.21504157 0 0 Z " fill="#7E38D7" transform="translate(308,292)"/>
<path d="M0 0 C4.75 0.75 4.75 0.75 7 3 C7.625 5.625 7.625 5.625 8 8 C4.67689517 6.83242263 2.16638868 5.85051143 0 3 C0 2.01 0 1.02 0 0 Z " fill="#278DE7" transform="translate(332,120)"/>
<path d="M0 0 C5.28 0 10.56 0 16 0 C16 0.33 16 0.66 16 1 C10.2364368 3.64812363 5.09067424 2.8019749 -1 2 C-0.67 1.34 -0.34 0.68 0 0 Z " fill="#715DDC" transform="translate(188,289)"/>
<path d="M0 0 C6.93 0 13.86 0 21 0 C21 0.33 21 0.66 21 1 C20.2575 1.144375 19.515 1.28875 18.75 1.4375 C16.13723017 1.91477207 16.13723017 1.91477207 14.21875 2.59375 C11.21133299 3.14440382 8.74696045 2.61628617 5.75 2.0625 C4.67234375 1.86785156 3.5946875 1.67320313 2.484375 1.47265625 C1.66453125 1.31667969 0.8446875 1.16070312 0 1 C0 0.67 0 0.34 0 0 Z " fill="#59B1EF" transform="translate(347,119)"/>
<path d="M0 0 C-1.38188453 3.21043882 -2.92421903 5.04936365 -5.625 7.25 C-6.57246094 8.03117188 -6.57246094 8.03117188 -7.5390625 8.828125 C-8.02117188 9.21484375 -8.50328125 9.6015625 -9 10 C-8.69121904 6.39755548 -8.00552268 5.00654002 -5.625 2.1875 C-3 0 -3 0 0 0 Z " fill="#B3EBE8" transform="translate(65,232)"/>
<path d="M0 0 C0 3.48961209 -0.90379374 5.11480295 -2.5 8.1875 C-2.9640625 9.08855469 -3.428125 9.98960937 -3.90625 10.91796875 C-4.2671875 11.60503906 -4.628125 12.29210937 -5 13 C-5.99 13 -6.98 13 -8 13 C-6.63589551 7.40717158 -3.84616474 4.08806189 0 0 Z " fill="#AD89F2" transform="translate(105,183)"/>
<path d="M0 0 C0.99 0 1.98 0 3 0 C3 0.66 3 1.32 3 2 C0.6875 3.6875 0.6875 3.6875 -3 5 C-6.79805056 4.37480649 -10.36803689 3.26020072 -14 2 C-10.97833856 0.99277952 -9.02274409 0.92658323 -5.875 1 C-4.25043671 1.03767103 -2.62433238 1.04657584 -1 1 C-0.67 0.67 -0.34 0.34 0 0 Z " fill="#696FE9" transform="translate(101,115)"/>
<path d="M0 0 C3.63 0 7.26 0 11 0 C7.45588058 3.54411942 6.255488 3.97872054 1.3125 4.0625 C0.219375 4.041875 -0.87375 4.02125 -2 4 C-0.68 3.34 0.64 2.68 2 2 C1.34 1.34 0.68 0.68 0 0 Z " fill="#63AEF1" transform="translate(148,329)"/>
<path d="M0 0 C2.00841268 0.01421885 4.01537247 0.13420475 6.01953125 0.265625 C4.45703125 2.265625 4.45703125 2.265625 2.01953125 4.265625 C-1.73046875 4.515625 -1.73046875 4.515625 -4.98046875 4.265625 C-3.72152968 1.74774686 -2.88459378 0.38688832 0 0 Z " fill="#6B8FEC" transform="translate(285.98046875,265.734375)"/>
<path d="M0 0 C0.66 0.33 1.32 0.66 2 1 C2.66 1 3.32 1 4 1 C4.99 1.33 5.98 1.66 7 2 C-0.28571429 5.42857143 -0.28571429 5.42857143 -5 5 C-4 2 -4 2 -2.0625 0.75 C-1.381875 0.5025 -0.70125 0.255 0 0 Z " fill="#9E57E6" transform="translate(327,286)"/>
<path d="M0 0 C3 3 3 3 3.36328125 5.62890625 C3.34652344 6.59699219 3.32976562 7.56507813 3.3125 8.5625 C3.30863281 9.53316406 3.30476563 10.50382813 3.30078125 11.50390625 C3 14 3 14 1 16 C0.67 10.72 0.34 5.44 0 0 Z " fill="#4CE4DE" transform="translate(319,185)"/>
<path d="M0 0 C0.66 1.32 1.32 2.64 2 4 C0.37660195 5.70884005 -1.29319053 7.37446717 -3 9 C-3.66 9 -4.32 9 -5 9 C-4.42647107 5.12867972 -2.51295648 2.91827204 0 0 Z " fill="#632EC9" transform="translate(220,368)"/>
<path d="M0 0 C3 3 3 3 3.29296875 5.48046875 C3.25816406 6.37378906 3.22335938 7.26710937 3.1875 8.1875 C3.16042969 9.08855469 3.13335937 9.98960937 3.10546875 10.91796875 C3.07066406 11.60503906 3.03585938 12.29210937 3 13 C2.34 13 1.68 13 1 13 C0.67 8.71 0.34 4.42 0 0 Z " fill="#51E9E1" transform="translate(208,185)"/>
<path d="M0 0 C3.60513403 2.06007659 6.80331012 4.3513141 10 7 C8.02 7.99 8.02 7.99 6 9 C4.99406757 7.8803014 3.9954151 6.7540588 3 5.625 C2.443125 4.99851562 1.88625 4.37203125 1.3125 3.7265625 C0 2 0 2 0 0 Z " fill="#62D7F6" transform="translate(67,295)"/>
<path d="M0 0 C3.63 2.31 7.26 4.62 11 7 C10.01 7.33 9.02 7.66 8 8 C7.67 8.66 7.34 9.32 7 10 C5.82739389 8.71372289 4.6620717 7.42080217 3.5 6.125 C2.8503125 5.40570313 2.200625 4.68640625 1.53125 3.9453125 C0 2 0 2 0 0 Z " fill="#A26DE2" transform="translate(135,277)"/>
<path d="M0 0 C2.61724095 2.36797991 4.32861729 4.89600354 6 8 C6 8.66 6 9.32 6 10 C5.34 10 4.68 10 4 10 C3.67 10.66 3.34 11.32 3 12 C2.49440092 10.56445975 1.9957251 9.1264798 1.5 7.6875 C1.2215625 6.88699219 0.943125 6.08648437 0.65625 5.26171875 C0 3 0 3 0 0 Z " fill="#C38CE4" transform="translate(131,242)"/>
<path d="M0 0 C2.20914 3.31371 2.22481553 4.3446021 2.125 8.1875 C2.10695313 9.08855469 2.08890625 9.98960937 2.0703125 10.91796875 C2.03550781 11.94857422 2.03550781 11.94857422 2 13 C1.34 13 0.68 13 0 13 C-0.83796731 8.34462607 -1.0161692 4.62921525 0 0 Z " fill="#D398EC" transform="translate(118,232)"/>
<path d="M0 0 C0.33 0 0.66 0 1 0 C1 2.64 1 5.28 1 8 C-0.98 8.99 -0.98 8.99 -3 10 C-2.25 3.375 -2.25 3.375 0 0 Z " fill="#AA6EF2" transform="translate(98,195)"/>
<path d="M0 0 C-0.57344937 2.86724686 -0.8614515 3.8614515 -3 6 C-5.125 5.625 -5.125 5.625 -7 5 C-7 4.34 -7 3.68 -7 3 C-4.4385343 0.70351351 -3.52032428 0 0 0 Z " fill="#C8F9F1" transform="translate(308,183)"/>
<path d="M0 0 C0.99 0 1.98 0 3 0 C3.66 1.98 4.32 3.96 5 6 C4.34 6 3.68 6 3 6 C3 7.98 3 9.96 3 12 C2.67 12 2.34 12 2 12 C1.34 8.04 0.68 4.08 0 0 Z " fill="#1E46B5" transform="translate(386,180)"/>
<path d="M0 0 C1.2065625 0.0309375 1.2065625 0.0309375 2.4375 0.0625 C0.4575 3.0325 0.4575 3.0325 -1.5625 6.0625 C-2.5525 5.7325 -3.5425 5.4025 -4.5625 5.0625 C-3.43829114 0.08386076 -3.43829114 0.08386076 0 0 Z " fill="#D9FCF5" transform="translate(195.5625,182.9375)"/>
<path d="M0 0 C0.66 1.32 1.32 2.64 2 4 C3.32 3.34 4.64 2.68 6 2 C4.35 3.98 2.7 5.96 1 8 C0.34 7.67 -0.32 7.34 -1 7 C-0.67 4.69 -0.34 2.38 0 0 Z " fill="#8A49DF" transform="translate(201,386)"/>
<path d="M0 0 C0.66 0.33 1.32 0.66 2 1 C2 3.97 2 6.94 2 10 C1.01 10.33 0.02 10.66 -1 11 C-2 10 -2 10 -2.1875 7.1875 C-2.00782439 4.13301456 -1.57664404 2.56204656 0 0 Z " fill="#6443D5" transform="translate(97,217)"/>
<path d="M0 0 C-1.62339805 1.70884005 -3.29319053 3.37446717 -5 5 C-5.66 5 -6.32 5 -7 5 C-6.625 2.5625 -6.625 2.5625 -6 0 C-3.50907189 -1.24546405 -2.58919267 -0.7767578 0 0 Z " fill="#254ABE" transform="translate(404,208)"/>
<path d="M0 0 C0.99 0 1.98 0 3 0 C1.515 6.435 1.515 6.435 0 13 C-1.08169281 8.67322878 -1.1453415 5.43291584 -1 1 C-0.67 0.67 -0.34 0.34 0 0 Z " fill="#7F86EB" transform="translate(108,181)"/>
<path d="M0 0 C4.3177458 0.50797009 8.03302114 1.19682779 12 3 C11.01 3.495 11.01 3.495 10 4 C9.67 4.66 9.34 5.32 9 6 C6 4 3 2 0 0 Z " fill="#3FB3F5" transform="translate(307,122)"/>
<path d="M0 0 C0.33 1.32 0.66 2.64 1 4 C0.01 4 -0.98 4 -2 4 C-2.2475 4.61875 -2.495 5.2375 -2.75 5.875 C-4.20628639 8.35068687 -5.37812506 8.95125002 -8 10 C-5.61820737 6.25718301 -3.25524265 3.02272532 0 0 Z " fill="#5FCEEF" transform="translate(242,90)"/>
<path d="M0 0 C0.99 0.33 1.98 0.66 3 1 C3 1.66 3 2.32 3 3 C4.65 3 6.3 3 8 3 C8 3.33 8 3.66 8 4 C5.69 4 3.38 4 1 4 C1 5.98 1 7.96 1 10 C0.67 10 0.34 10 0 10 C0 6.7 0 3.4 0 0 Z " fill="#4399E4" transform="translate(239,41)"/>
<path d="M0 0 C0.99 0 1.98 0 3 0 C1.95125002 2.62187494 1.35068687 3.79371361 -1.125 5.25 C-1.74375 5.4975 -2.3625 5.745 -3 6 C-3 5.34 -3 4.68 -3 4 C-3.99 3.67 -4.98 3.34 -6 3 C-5.195625 2.690625 -4.39125 2.38125 -3.5625 2.0625 C-1.10919595 1.23664655 -1.10919595 1.23664655 0 0 Z " fill="#208CE4" transform="translate(267,38)"/>
<path d="M0 0 C1.32 0.66 2.64 1.32 4 2 C1.73814546 4.26185454 0.03016439 5.03921617 -3 6 C-3.99 5.67 -4.98 5.34 -6 5 C-4.02 3.35 -2.04 1.7 0 0 Z " fill="#CA8AED" transform="translate(362,262)"/>
<path d="M0 0 C0.66 0 1.32 0 2 0 C2.66 1.98 3.32 3.96 4 6 C2.68 6.33 1.36 6.66 0 7 C-0.38133299 5.0085944 -0.71325582 3.00720923 -1 1 C-0.67 0.67 -0.34 0.34 0 0 Z " fill="#3F5AD2" transform="translate(403,188)"/>
<path d="M0 0 C0.66 0.33 1.32 0.66 2 1 C2 2.65 2 4.3 2 6 C0.02 6.66 -1.96 7.32 -4 8 C-2.68 5.36 -1.36 2.72 0 0 Z " fill="#39DBF6" transform="translate(177,74)"/>
<path d="M0 0 C0 0.66 0 1.32 0 2 C-3.21451269 3.60725635 -6.43612536 3.05748185 -10 3 C-6.84916414 -0.15083586 -4.41812253 0 0 0 Z " fill="#5649CE" transform="translate(240,314)"/>
<path d="M0 0 C0 0.33 0 0.66 0 1 C-5.57432514 2.66251802 -9.3067505 3.18609365 -15 2 C-15 1.67 -15 1.34 -15 1 C-10.03926578 -0.32286246 -5.08888488 -0.08893197 0 0 Z " fill="#798CDA" transform="translate(283,266)"/>
<path d="M0 0 C1.65 0.33 3.3 0.66 5 1 C3.25 4.875 3.25 4.875 1 6 C-0.32 5.01 -1.64 4.02 -3 3 C-2.01 3 -1.02 3 0 3 C0 2.01 0 1.02 0 0 Z " fill="#2B94EF" transform="translate(322,140)"/>
<path d="M0 0 C-1.26607607 0.53229326 -2.53810412 1.05044544 -3.8125 1.5625 C-4.52019531 1.85253906 -5.22789062 2.14257812 -5.95703125 2.44140625 C-8 3 -8 3 -11 2 C-7.62346206 -1.37653794 -4.38842265 -1.24183024 0 0 Z " fill="#3B5CD6" transform="translate(299,270)"/>
<path d="M0 0 C1.65 0 3.3 0 5 0 C4.67 0.99 4.34 1.98 4 3 C2.35 3.33 0.7 3.66 -1 4 C-0.67 2.68 -0.34 1.36 0 0 Z " fill="#234DC2" transform="translate(315,264)"/>
<path d="M0 0 C2 2 2 2 2.125 5.125 C2.08375 6.07375 2.0425 7.0225 2 8 C1.01 8 0.02 8 -1 8 C-0.67 5.36 -0.34 2.72 0 0 Z " fill="#CCA2E7" transform="translate(116,188)"/>
<path d="M0 0 C2 2 2 2 2.125 5.125 C2.08375 6.07375 2.0425 7.0225 2 8 C1.01 8 0.02 8 -1 8 C-0.67 5.36 -0.34 2.72 0 0 Z " fill="#7FCAED" transform="translate(247,70)"/>
<path d="M0 0 C0.99 0 1.98 0 3 0 C3.125 2.875 3.125 2.875 3 6 C2.34 6.66 1.68 7.32 1 8 C0.67 5.36 0.34 2.72 0 0 Z " fill="#BF88DF" transform="translate(115,232)"/>
<path d="M0 0 C2 2 2 2 2 6 C0.68 6 -0.64 6 -2 6 C-1.34 4.02 -0.68 2.04 0 0 Z " fill="#96DDFA" transform="translate(255,36)"/>
</svg>
